<?xml version="1.0" standalone="yes"?>
<svg xmlns="http://www.w3.org/2000/svg" width="1920" height="768">
<path style="fill:#a7f1ef; stroke:none;" d="M0 0L0 525L19 527C19.9224 514.766 35.4392 508.854 43 519L45 519C51.6735 510.721 66.0471 510.636 71 521C77.5284 518.934 83.1869 515.039 90 513.514C106.045 509.922 126.303 517.009 129 535C137.326 532.361 141.299 536.095 149 535.948C165.031 535.643 183.35 526.968 194 545C205.696 542.587 211.958 547.12 223 547.945C247.249 549.759 271.712 550.897 296 551.961C382.083 555.73 468.029 562.197 554 568.089C578.322 569.757 602.726 571.821 627 574.17C640.145 575.442 654.835 578.809 668 577.815C700.289 575.377 732.612 565.635 765 562.166C791.193 559.36 817.685 556.659 844 556.015C861.727 555.58 880.416 558.001 898 555.711C922.535 552.514 947.906 543.391 972 537.475C1011.95 527.665 1052.58 520.184 1093 512.611C1230.6 486.829 1370.71 468.319 1510 454.83C1545.66 451.377 1581.26 446.551 1617 444.09C1642.48 442.335 1669.94 442.714 1695 437.826C1700.16 436.82 1704.73 434.06 1710 433.3C1714.11 432.708 1719.81 434.234 1723.58 432.397C1728.06 430.212 1730.25 422.404 1735 419.248C1750.83 408.738 1769.95 413.327 1786 420C1789.21 383.452 1837.13 390.655 1851 415C1862.93 410.767 1869.76 412.779 1881 418C1883.49 398.755 1900.68 384.842 1920 384L1920 0L0 0z"/>
<path style="fill:#fbfefd; stroke:none;" d="M1618 110L1617 110C1614.81 96.2051 1597.2 91.1305 1587.04 100.214C1579.62 106.849 1579.84 117.944 1582 127C1568.97 125.076 1557.06 116.219 1544 115.189C1538.42 114.749 1531.06 118.32 1532.48 125C1534.1 132.665 1544.44 136.309 1551 138.279C1570.28 144.07 1593.04 141 1613 141L1811 141C1827.38 141 1844.76 142.634 1861 140.424C1865.88 139.76 1873.97 140.089 1877.21 135.606C1880.18 131.502 1875.46 127.921 1872 126.562C1864.05 123.443 1854.25 123.035 1846 125C1852.39 98.1434 1808.93 112.219 1798 120C1797.98 90.4416 1756.97 106.501 1741 114C1748.82 81.1695 1690.64 89.6224 1680 108C1679.87 91.1523 1694.05 78.1948 1685.18 60C1676.03 41.2223 1655.28 41.4244 1641 54.1736C1625.14 68.3362 1619.62 89.4901 1618 110M262 101C254.288 98.9597 248.849 98.1849 242 103C247.618 83.0074 229.981 64.5923 210 76.9946C200.682 82.7781 197.086 93.562 197 104C186.353 100.12 183.407 106.82 174 107.616C160.84 108.728 149.277 102.851 141 118C153.196 121.605 169.289 119 182 119C212.388 119 242.649 118 273 118L303 118C306.929 118 311.852 118.91 314.031 114.852C321.017 101.841 321.768 72.2196 304 67.5579C283.602 62.2062 266.805 83.5726 262 101M826 144C816.457 142.715 807.341 140.534 799.044 147.394C796.191 149.753 791.342 156.588 795.603 159.972C798.692 162.425 806.273 161 810 161L847 161C895.057 161 942.975 160 991 160C985.297 140.248 961.31 140.053 948 152C943.902 135.789 929.583 136.12 918 144C917.183 134.091 910.747 129.12 901 132C903.811 121.699 906.868 111.83 906.996 101C907.362 70.1027 883.372 59.3369 857 72.9807C832.486 85.6633 814.257 116.707 826 144M84 108.44C64.6244 111.53 78.4366 125.099 92 122.671C96.9312 121.788 104.776 115.805 98.6821 110.854C94.9816 107.848 88.4465 107.731 84 108.44M1333 250C1325.29 244.308 1313.46 231.442 1303.53 241.394C1300.29 244.641 1300.09 250.335 1296.57 253.062C1290.36 257.874 1270.05 264.199 1281.01 277.397C1283.45 280.336 1290.61 279 1294 279L1332 279L1456 279L1490 279C1494.04 279 1500.18 280.115 1503.79 277.972C1514.5 271.614 1504.04 256.836 1496 254.225C1483.77 250.252 1473.73 257.509 1463 262C1457.57 247.988 1443.04 247.726 1432 255C1431.94 234.102 1410.94 226.085 1395 238C1397.71 224.877 1401.2 190.993 1381 188.434C1373.34 187.464 1365.18 194.287 1360 199.09C1345.88 212.174 1333.87 230.133 1333 250M404 304C396.185 295.079 387.478 288.935 375 291.34C367.013 292.88 355.816 303.007 360.322 311.957C364.103 319.467 374.898 319 382 319L442 319L696 319C689.689 306.648 669.809 306.334 659 312C660.227 308.702 661.428 305.584 661.235 302C659.887 276.857 629.391 290.325 618 298.64C614.647 301.088 611.008 305.376 607 306.602C598.771 309.12 592.436 300.531 584 303C584.917 298.988 586.261 295.174 585.695 291C580.961 256.054 534.198 277.92 525 298L524 298C525.913 287.534 519.888 283.647 510 286C513.937 276.532 518.948 267.247 520.561 257C526.344 220.261 493.21 209.271 464 221.425C428.817 236.064 404 265.246 404 304z"/>
<path style="fill:#a7f1ef; stroke:none;" d="M523 298L524 299L523 298z"/>
<path style="fill:#fbfefd; stroke:none;" d="M329 303.533C312.895 307.449 319.551 325.331 335 321.486C340.322 320.162 354.416 315.107 350.588 307.228C347.738 301.361 334.195 302.27 329 303.533M963 346C956.835 339.966 939.272 328.239 933.742 342.04C931.388 347.916 935.602 353.842 934 360L1079 360L1113 360C1117.11 360 1123.39 361.114 1125.82 356.852C1128.76 351.687 1123.65 347.832 1119 347.189C1109.06 345.815 1100.91 350.763 1092 354C1088.71 347.116 1083.05 345.711 1076 347C1078.42 322.189 1043.28 335.664 1033 342C1040.32 328.035 1032.02 311.69 1015 315.39C1004.93 317.58 997.361 327.835 994 337C991.432 328.881 992.613 319.199 984.957 313.514C965.028 298.715 959.08 333.635 963 346z"/>
<path style="fill:#9be26c; stroke:none;" d="M1914 384L1914 385L1917 385L1914 384z"/>
<path style="fill:#6dc03e; stroke:none;" d="M1882 419C1876.21 415.79 1870.84 412.436 1864 412.105C1860.12 411.917 1854.72 414.79 1851.18 413.021C1845.06 409.961 1841.7 402.171 1835 398.81C1813.04 387.793 1791.6 397.774 1786 421C1770.76 410.243 1727.36 407.883 1726 434C1716.07 433.574 1708.51 433.336 1699 437L1699 438L1765 434.039L1920 430L1920 384C1900.53 386.515 1882.01 397.722 1882 419z"/>
<path style="fill:#9be26c; stroke:none;" d="M1910.67 385.333L1911.33 385.667L1910.67 385.333M1908 386L1909 387L1908 386M1905 387L1906 388L1905 387M1902.67 388.333L1903.33 388.667L1902.67 388.333M1901 389L1902 390L1901 389M1899 390L1900 391L1899 390M1897 391L1898 392L1897 391M1894 393L1895 394L1894 393M1809 394L1809 395L1813 395L1809 394M1818 394L1818 395L1823 395L1818 394M1893 394L1894 395L1893 394M1805.67 395.333L1806.33 395.667L1805.67 395.333M1826 395L1827 396L1826 395M1803 396L1804 397L1803 396M1829.67 396.333L1830.33 396.667L1829.67 396.333M1890 396L1891 397L1890 396M1801 397L1802 398L1801 397M1832 397L1833 398L1832 397M1889 397L1890 398L1889 397M1799 398L1800 399L1799 398M1834 398L1835 399L1834 398M1798 399L1799 400L1798 399M1836 399L1837 400L1836 399M1796 400L1797 401L1796 400M1838 400L1839 401L1838 400M1795 401L1796 402L1795 401M1839 401L1840 402L1839 401M1886 401L1887 402L1886 401M1794 402L1795 403L1794 402M1793 403L1794 404L1793 403M1842 403L1843 404L1842 403M1885 403L1886 404L1885 403M1792 404L1793 405L1792 404M1843 404L1844 405L1843 404M1884 404L1885 405L1884 404M1791 405L1792 406L1791 405M1844 405L1845 406L1844 405M1790.33 406.667L1790.67 407.333L1790.33 406.667M1845 406L1846 407L1845 406M1883 406L1884 407L1883 406M1789 408L1790 409L1789 408M1847 409L1848 410L1847 409M1882 409L1883 410L1882 409M1788 410L1789 411L1788 410M1848 410L1849 411L1848 410M1787 412L1788 413L1787 412M1849 412L1850 413L1849 412M1856 412L1856 413L1859 413L1856 412M1867.67 412.333L1868.33 412.667L1867.67 412.333M1751 413L1751 414L1756 414L1751 413M1761 413L1761 414L1766 414L1761 413M1850 413L1851 414L1850 413M1854 413L1855 414L1854 413M1871 413L1872 414L1871 413M1746.67 414.333L1747.33 414.667L1746.67 414.333M1770.67 414.333L1771.33 414.667L1770.67 414.333M1874 414L1875 415L1874 414M1881 414L1880 419L1881 414M1742.67 415.333L1743.33 415.667L1742.67 415.333M1774.67 415.333L1775.33 415.667L1774.67 415.333M1786 415L1786 420L1787 420L1786 415M1876 415L1877 416L1876 415M1740 416L1741 417L1740 416M1777.67 416.333L1778.33 416.667L1777.67 416.333M1877 416L1878 417L1877 416M1737.67 417.333L1738.33 417.667L1737.67 417.333M1780 417L1781 418L1780 417M1879 417L1880 418L1879 417M1735 418L1736 419L1735 418M1782 418L1783 419L1782 418M1734 419L1735 420L1734 419M1784 419L1785 420L1784 419M1785 420L1786 421L1785 420M1731 421L1732 422L1731 421M1730 422L1731 423L1730 422M1729 423L1730 424L1729 423M1728 424L1729 425L1728 424M1727 426L1728 427L1727 426M1726 428L1727 429L1726 428M214 545L214 546L218 549L168 546.911L49 544C51.5777 553.362 62.2341 557.459 68 564C82.3101 561.343 94.7281 568.552 96 584C100.352 581.614 104.821 578.421 110 578.474C122.484 578.601 129.614 591.892 127 603C137.348 601.67 141.8 603.284 147 613L148 613C154.803 603.343 168.638 595.271 174 611C181.962 605.463 184.168 602.411 193 608C197.445 602.527 201.895 604.196 205 610C210.724 609.402 212.932 612.706 216 617L220 613C217.119 625.602 219.166 643.753 226 655L227 655L229 648L235 657L240 626L241 626L242 640L244 640L245 634L247 634C251.022 646.704 262.538 654.116 275 657C266.17 629.384 267.902 597.736 286 574C285.304 594.88 279.241 615.289 287 636L289 628L296.39 640.306L317 638L314 618C318.842 623.493 317.871 631.915 322.228 637.566C333.259 651.877 338.714 626.232 340 620L341 620C341.007 623.27 339.267 639.364 343.213 640.079C346.977 640.761 349.381 632.487 350.397 630C355.507 617.487 357.794 605.015 361 592L362 592C362.011 609.091 361.692 625.31 357 642L358 642L374 611L373 624L374 624L397 600C397.086 610.2 402.168 621.353 410 628L413 624L412 631C418.079 634.405 422.99 634.652 429 631L425 616L433 623L434 623L461.999 602.83L482 584L460 615C471.402 613.629 478.924 607.217 488 601L482 612L486 606L513 576L502 603L513 594L514 595C508.097 602.958 508.908 609.848 511 619L512 619L521 603C518.585 612.334 519.382 619.122 523 628C534.309 622.733 548.195 605.353 553 594L554 594L546 622L555 614L554 625L555 625C563.009 607.797 562 588.491 562 570L563 570C568.509 591.293 569.234 612.847 581 632L582 632L584 603L585 603C587.45 614.72 593.827 626.68 605 632L603 608L604 608C610.378 626.732 622.308 638.676 641 645L639 636C648.08 643.674 669.345 651.757 681 644.397C689.592 638.97 693.703 628.669 701 622L693 643C701.592 639.245 708.011 632.427 712 624L713 624L707 643C726.997 641.254 757.667 626.282 767 608L768 608C766.217 618.003 759.429 626.688 754 635C761.841 632.347 775.797 629.046 781.297 622.606C784.426 618.943 785.277 612.472 787 608L788 608L788 620L788 621L785 626C801.753 622.77 810.488 606.512 822 596L815 632L823 626C823.399 632.101 824.105 635.836 829 640L842 616L843 616C841.996 622.83 840.366 628.98 841.289 636C844.523 660.58 869.985 666.476 890 673L883 653L898 678L899 678C896.528 667.646 894.921 652.352 903 644C900.356 655.107 902.711 666.478 908.866 676C910.677 678.803 913.291 683.523 917.015 683.898C922.24 684.425 929.469 678.217 934 676L928 664L937 673L952 666C949.579 669.097 943.278 673.824 943.346 677.941C943.45 684.305 953.852 680.257 955.397 676.775C957.775 671.414 955.116 663.632 955 658L956 658L960 675L981 662L980 688L981 688C989.471 675.391 993.733 660.419 998.116 646C1000.42 638.415 1001.96 628.522 1008 623C1008 636.456 1001.69 656.507 1006.03 669C1007.58 673.458 1015.42 689.977 1020 683C1022.7 690.929 1026.42 701.694 1034 706L1033 697L1034 697C1037.96 704.758 1043.94 708.355 1052 711L1048 691L1059 703L1063 682L1064 682L1066 687L1067 687C1067 664.603 1071 645.626 1076 624L1077 624L1081 655L1082 655L1082 651L1083 651C1085.97 661.475 1086.82 674.06 1097 680L1096 674L1109 677L1107 642L1109 642L1114 657L1115 657L1115 649C1120.18 653.954 1124.91 657.512 1132 659L1130 635L1139 659L1147 658C1144.77 649.838 1141.33 642.528 1140.29 634C1137.75 613.352 1144.54 595.103 1151 576L1152 576C1152 598.284 1154.34 619.591 1164 640C1173.21 632.89 1172.54 622.291 1175 612L1176 612C1177 624.292 1180.62 647.098 1195 650L1192 615L1193 615L1201 636L1202 636L1202 633L1203 633L1207 653L1224 620L1225 620L1219 646L1220 646C1230.93 630.609 1237.83 610.078 1243 592L1244 592L1235 647L1252 623L1251 634L1264 625C1260.52 630.688 1250.96 642.807 1255.03 649.852C1259.09 656.872 1272.58 650.621 1278 648.575C1298.03 641.014 1316.36 629.339 1335 619C1325.76 628.211 1315.91 636.671 1307.82 647C1305.29 650.224 1300.93 655.55 1301.96 660C1303.47 666.605 1312.48 672.046 1318 675L1323 662C1315.49 693.528 1361.55 669.814 1374 664L1350 681C1355.9 690.287 1365.57 686.441 1374 683L1364 692L1364 693L1406 667L1385 693L1401 684C1395.66 689.858 1389.26 699.032 1394 707L1404 694C1401.58 703.125 1399.29 710.608 1405 719L1406 719C1415.25 705.899 1410.64 688.595 1416 674L1417 674L1425 713L1426 713L1434 702L1435 713L1436 713C1443.05 691.334 1447.66 668.586 1443 646L1444 646C1449.03 664.447 1449.46 688.865 1460 705L1461 705C1461.72 688.199 1464.8 671.976 1470 656L1471 656C1472.16 669.311 1480.98 680.946 1486 693L1487 693L1487 679C1495.91 689.839 1495.89 705.857 1513 706L1521 655L1522 655L1534 694C1545.74 687.839 1535.45 663.86 1534 654L1535 654C1541.83 672.026 1564.56 689.212 1576.74 666C1578.28 663.06 1579.42 660.257 1580 657L1581 657L1581 676C1598.53 664.309 1595.64 639.551 1598 621L1599 621C1599.05 627.56 1600.43 633.789 1602.52 640C1604.06 644.577 1606.13 648.857 1608.6 653C1610.85 656.775 1614.4 664.093 1619.09 665.184C1624.8 666.51 1641.68 656.649 1645.49 652.471C1653.56 643.601 1649.43 624.761 1666 622.703C1669 622.33 1672.09 623.401 1675 624C1669.88 611.679 1669.95 592.124 1689 601C1690.38 595.668 1691.3 590.287 1695.21 586.105C1711.72 568.469 1729.59 590.929 1729 608C1740.92 605.639 1749.35 610.715 1752 623L1753 623C1760.88 608.871 1770.4 605.013 1785 611C1783.24 597.084 1784.77 579.12 1802 576C1800.63 568.018 1796.42 560.353 1797.3 552C1799.99 526.596 1821.57 529.329 1837 541C1840.9 534.387 1845.64 533.021 1853 533C1848.13 524.454 1841.38 517.229 1840.3 507C1838.75 492.26 1852.95 485.516 1865 490C1865 472.489 1874.09 452.703 1895 454.529C1904.62 455.368 1911.69 460.883 1920 465L1920 430C1673.24 430 1425.9 459.62 1182 497.275C1117.36 507.254 1052.88 519.238 989 533.424C958.745 540.144 927.629 551.721 897 555.711C879.416 558.001 860.727 555.58 843 556.015C819.698 556.586 796.21 558.848 773 561.169C749.21 563.548 725.55 567.151 702 571.25C690.658 573.224 678.49 577.378 667 577.74C650.647 578.255 633.288 574.726 617 573.17C583.077 569.928 548.987 567.417 515 565.089C446.35 560.388 377.636 556.79 309 552.089C278.388 549.993 243.335 554.021 214 545M1725 431L1720 433L1720 434C1722.5 433.959 1726.23 434.275 1725 431M1708 433L1708 434L1712 434L1708 433M1704.67 434.333L1705.33 434.667L1704.67 434.333M1701.67 435.333L1702.33 435.667L1701.67 435.333M1699.67 436.333L1700.33 436.667L1699.67 436.333z"/>
<path style="fill:#6dc03e; stroke:none;" d="M1865 490C1853.36 484.158 1840.15 491.355 1840.08 505C1840.03 515.74 1846.63 524.961 1853 533C1845.7 533.005 1840 533.532 1837 541C1826.8 530.283 1805.61 524.916 1799.1 543C1794.96 554.513 1798.96 564.872 1802 576C1784.64 577.79 1782.46 597.35 1785 611C1771.92 603.565 1758.39 608.772 1753 623L1752 623C1750.27 610.445 1740.93 604.68 1729 608C1730.33 590.506 1710.57 567.284 1694.39 586.105C1690.83 590.252 1690.01 595.815 1689 601C1671.21 590.106 1668.16 612.224 1675 624C1652.47 617.671 1654.98 637.926 1646.14 650.815C1643.08 655.278 1636.66 657.423 1632 659.753C1628.69 661.408 1622.95 665.76 1619.09 664.582C1604.38 660.092 1607.2 635.728 1598 628L1599 621L1598 621C1594.1 641.673 1597.76 660.435 1581 676L1581 657L1580 657C1578.99 660.509 1577.53 663.852 1575.65 667C1562.19 689.513 1543.6 669.439 1535 654L1534 654C1535.02 665.691 1545.33 685.021 1534 694L1522 655L1521 655L1513 706C1495.33 705.622 1497.58 688.07 1487 679L1486 694C1493.72 701.271 1496.38 713.246 1502.4 721.867C1504.47 724.827 1510.27 726.598 1512.97 723.258C1517.38 717.812 1512.13 709.041 1519 704L1525 718L1525 708L1526 707L1534 710L1520 697C1530.12 698.307 1545.77 708.8 1555 706.988C1561.11 705.79 1569.7 703.387 1569 696C1573.69 692.546 1576.42 682.659 1577 677L1578 677L1582 697L1583 697L1605 666C1603.42 675.196 1598.87 688.47 1592 695L1592 696C1603.02 692.69 1612.01 680.266 1613 669L1614 669L1610 688L1633 683L1627 663C1640.49 671.912 1649.59 682.895 1667 677L1659 659C1665.86 666.858 1672.58 680.375 1684 681L1684 665L1685 665C1686.36 670.745 1688.54 677.163 1694 680C1694.12 666.015 1700.63 654.173 1711 645C1704.11 657.425 1700 667.625 1700 682L1701 682L1718 668C1713.67 674.13 1713 679.673 1713 687L1732 679L1720 694L1729 694L1735 686C1735.04 695.936 1742.08 696.611 1751 697L1750 686L1751 686C1756.94 699.765 1771 709.315 1786 710L1780 690L1790 702L1793 683C1797.18 699.954 1801.92 719.487 1822.98 707.435C1826.28 705.548 1828.31 702.563 1831 700L1826 711L1833 710L1835 704L1836 704L1837 708L1853 698L1845 712L1845 713C1861.4 710.175 1875.59 697.263 1887.3 686.334C1892.06 681.89 1898.02 676.299 1900.27 670C1902.42 663.991 1900 656.27 1900 650C1911.68 662.09 1909.59 686.819 1919 701C1923.74 684.957 1920 662.767 1920 646L1920 529L1920 485C1920 479.509 1921.52 471.305 1919.4 466.174C1913.46 451.816 1886.25 452.165 1876.04 459.928C1866.17 467.433 1865 478.541 1865 490z"/>
<path style="fill:#a7f1ef; stroke:none;" d="M1642 494L1642 495L1647 497L1642 494z"/>
<path style="fill:#fbfefd; stroke:none;" d="M1642 495L1641 500L1636 501L1642 503L1642 509L1644 509C1644.71 505.663 1644.83 504.058 1642 502L1646 499L1646 504L1652 504L1649 498L1653 498L1653 496L1644 497L1645 495L1642 495z"/>
<path style="fill:#a7f1ef; stroke:none;" d="M1649 495L1649 496L1653 496L1649 495M1653.33 496.667L1653.67 497.333L1653.33 496.667M1641.33 497.667L1641.67 498.333L1641.33 497.667M1646 498L1647 499L1646 498M1649 498L1652 502L1653 499L1649 498M1637.67 499.333L1638.33 499.667L1637.67 499.333M1640 499L1641 500L1640 499z"/>
<path style="fill:#9be26c; stroke:none;" d="M1643 499L1644 503L1645 503L1646 499L1643 499z"/>
<path style="fill:#a7f1ef; stroke:none;" d="M1636 500L1637 501L1636 500M1647 500L1648 501L1647 500M1642 501L1643 502L1642 501M1636 502L1636 503L1639 503L1636 502M1643 502L1644 503L1643 502M1645 502L1645 505L1646 505L1645 502M1652.33 502.667L1652.67 503.333L1652.33 502.667M1641 503L1641 506L1642 506L1641 503M1362 506L1362 507L1367 505L1367 509L1368 509L1368 504L1362 506M1647.67 504.333L1648.33 504.667L1647.67 504.333M1651 504L1652 505L1651 504M1360 505L1361 506L1360 505z"/>
<path style="fill:#fbfefd; stroke:none;" d="M1365 505L1366 510L1365 511L1359 513L1363 512L1366 515L1366 510L1370 511L1366 508L1367 505L1365 505M1359 506L1364 508L1359 506z"/>
<path style="fill:#a7f1ef; stroke:none;" d="M1640 506L1641 507L1640 506z"/>
<path style="fill:#9be26c; stroke:none;" d="M1362 508L1362 510L1363 511L1365 511L1365 507L1362 508z"/>
<path style="fill:#a7f1ef; stroke:none;" d="M1644.33 507.667L1644.67 508.333L1644.33 507.667M1359 508L1361 511L1359 508M1369 508L1370 511L1371 511L1371 508L1369 508M1641 508L1644 510L1644 509L1641 508M1366 510L1364 515L1364 516L1370 512L1366 510M1359 511L1360 512L1359 511z"/>
<path style="fill:#9be26c; stroke:none;" d="M96 512L96 513L101 513L96 512z"/>
<path style="fill:#a7f1ef; stroke:none;" d="M1362 512L1363 513L1362 512z"/>
<path style="fill:#9be26c; stroke:none;" d="M30.6667 513.333L31.3333 513.667L30.6667 513.333z"/>
<path style="fill:#6dc03e; stroke:none;" d="M20 527L0 525L0 623C11.3362 619.993 21.4876 619.022 33 622L28 612L44 620L38 602C45.9712 608.109 50.5896 617.661 58.4637 624.035C69.0389 632.594 94.4684 641.644 108 643L102 625L116 649L117 649C115.704 638.748 113.312 624.253 121 616C116.044 636.818 130.212 648.714 141 664L142 664L141 652L142 652C144.53 660.661 149.603 667.307 158 671C157.886 657.214 152.034 645.49 145 634L154 640L165 656L167 655C171.147 668.101 185.475 688.095 199 692L193 666L194 666C200.793 679.164 216.14 692.359 231 695L231 694L228 694C228.71 680.344 242.414 673.656 255 675.304C264.516 676.55 274.05 678.799 270 690C275.73 688.459 277.446 684.435 279 679L280 679C281.683 683.905 287.901 690.106 291.566 682.941C294.134 677.92 293.958 670.531 295 665L296 665C296.003 669.034 295.268 675.149 298.525 678.208C308.058 687.161 326.489 673.451 324 662L336 668C332.383 661.028 326.14 656.081 319 653L319 652L350 662L350 661L347 660C350.327 650.461 370.03 632.438 376.963 650.086C379.365 656.203 369.609 656.967 366 657L366 658C372.499 657.981 379.665 656.84 380 649C390.099 646.978 395.27 627.503 403 621L391 650C399.838 645.598 406.214 638.034 410 629L408 642L431 637L427 620L426 620L429 631C422.234 634 418.809 633.774 412 631L413 624L410 628C403.373 620.016 397.227 610.657 397 600C388.937 603.77 377.809 615.993 374 624L373 624L374 611C366.486 615.922 360.869 633.575 358 642L357 642C362.977 626.068 362.046 608.568 362 592L361 592L350.397 629L343.213 639.369L341 620L340 620C338.375 625.78 332.567 651.869 322.228 636.772C318.447 631.252 319.538 622.159 314 618L317 638L297.213 640.096L289 628L287 636C283.185 622.423 282.126 608.06 283.09 594C283.546 587.337 286.2 580.576 286 574C266.49 592.025 265.15 634.107 275 657C262.393 652.891 252.759 646.317 247 634L245 634L244 640L242 640L241 626L240 626C235.47 636.22 235 646.007 235 657L229 648C226.043 649.92 226.117 651.696 227 655L226 655C220.191 641.899 217.947 626.964 220 613L216 617C213.506 612.092 210.871 608.658 205 610C202.802 603.727 196.503 601.345 193 608C185.401 601.516 180.483 604.669 174 611C170.752 594.948 152.998 602.284 148 613L147 613C143.231 602.725 136.965 601.074 127 603C132.995 582.672 110.947 572.83 96 584C95.3172 568.378 82.5999 560.524 68 564L49 544L168 546.961L218 549C212.573 540.787 202.77 546.27 195.209 544.112C189.083 542.363 185.246 535.814 178 534.286C167.279 532.026 158.19 536.876 148 535.938C140.118 535.211 136.896 531.577 129 536C121.007 505.183 92.1047 512.751 70 522C67.6004 506.622 52.0041 517.057 44 517.032C40.7631 517.021 38.22 513.959 35 513.488C27.4074 512.376 19.4157 519.628 20 527z"/>
<path style="fill:#9be26c; stroke:none;" d="M36.6667 513.333L37.3333 513.667L36.6667 513.333M50 513L50 514L53 514L50 513M60.6667 513.333L61.3333 513.667L60.6667 513.333M89.6667 513.333L90.3333 513.667L89.6667 513.333M105 513L105 514L108 514L105 513z"/>
<path style="fill:#a7f1ef; stroke:none;" d="M1360 513L1361 514L1360 513M1363.33 513.667L1363.67 514.333L1363.33 513.667M1759 513L1759 514L1764 514L1764 513L1759 513z"/>
<path style="fill:#fbfefd; stroke:none;" d="M1764 513L1759 514L1757 519L1765 519L1760 520L1761 523L1762 523L1767 519L1769 521L1764 513z"/>
<path style="fill:#9be26c; stroke:none;" d="M28 514L29 515L28 514M38.6667 514.333L39.3333 514.667L38.6667 514.333M48.6667 514.333L49.3333 514.667L48.6667 514.333M64.6667 514.333L65.3333 514.667L64.6667 514.333M86 514L87 515L86 514M110 514L111 515L110 514z"/>
<path style="fill:#a7f1ef; stroke:none;" d="M1765 514L1766 515L1765 514z"/>
<path style="fill:#9be26c; stroke:none;" d="M26 515L27 516L26 515M40 515L41 516L40 515M47 515L48 516L47 515M67 515L68 516L67 515M83 515L84 516L83 515M112.667 515.333L113.333 515.667L112.667 515.333z"/>
<path style="fill:#a7f1ef; stroke:none;" d="M1764 515L1765 516L1764 515z"/>
<path style="fill:#9be26c; stroke:none;" d="M25 516L26 517L25 516M41 516L42 517L41 516M46 516L47 517L46 516M68 516L69 517L68 516M80.6667 516.333L81.3333 516.667L80.6667 516.333M115 516L116 517L115 516z"/>
<path style="fill:#a7f1ef; stroke:none;" d="M1758 516L1759 517L1758 516z"/>
<path style="fill:#9be26c; stroke:none;" d="M1760 517L1760 518L1764 519L1763 516L1760 517z"/>
<path style="fill:#a7f1ef; stroke:none;" d="M1765 516L1769 518L1769 517L1765 516z"/>
<path style="fill:#9be26c; stroke:none;" d="M23 517L24 518L23 517M42 517L43 518L42 517M69 517L70 518L69 517M78 517L79 518L78 517M117 517L118 518L117 517z"/>
<path style="fill:#a7f1ef; stroke:none;" d="M1757 517L1758 518L1757 517z"/>
<path style="fill:#9be26c; stroke:none;" d="M22 518L23 519L22 518M70 518L72 522L70 518M76.6667 518.333L77.3333 518.667L76.6667 518.333M119 518L120 519L119 518z"/>
<path style="fill:#a7f1ef; stroke:none;" d="M1756 518L1757 519L1756 518M1757 519L1757 520L1761 518L1757 519M1764 518L1765 519L1764 518M1769 518L1769 521L1770 521L1769 518z"/>
<path style="fill:#9be26c; stroke:none;" d="M21 519L22 520L21 519M75 519L76 520L75 519M120 519L121 520L120 519z"/>
<path style="fill:#a7f1ef; stroke:none;" d="M1762 523L1767 520L1762 523z"/>
<path style="fill:#9be26c; stroke:none;" d="M20 520L21 521L20 520M73 520L74 521L73 520M19 521L19 524L20 524L19 521M122 521L123 522L122 521z"/>
<path style="fill:#a7f1ef; stroke:none;" d="M1760.33 521.667L1760.67 522.333L1760.33 521.667z"/>
<path style="fill:#9be26c; stroke:none;" d="M123 522L124 523L123 522M124 523L125 524L124 523z"/>
<path style="fill:#a7f1ef; stroke:none;" d="M1453 527L1453 528L1463 524L1453 527z"/>
<path style="fill:#9be26c; stroke:none;" d="M125 524L126 525L125 524z"/>
<path style="fill:#fbfefd; stroke:none;" d="M1460 524L1452 528C1452.73 531.403 1454.81 530.987 1458 531L1456 536L1466 534L1465 529L1470 529L1470 528L1463 528L1463 524L1460 524z"/>
<path style="fill:#9be26c; stroke:none;" d="M8 525L8 526L12 526L8 525M19.3333 525.667L19.6667 526.333L19.3333 525.667z"/>
<path style="fill:#a7f1ef; stroke:none;" d="M1462 525L1463 526L1462 525z"/>
<path style="fill:#9be26c; stroke:none;" d="M16.6667 526.333L17.3333 526.667L16.6667 526.333M126 526L127 527L126 526z"/>
<path style="fill:#a7f1ef; stroke:none;" d="M1463 528L1469 527L1463 528M1460 527L1461 528L1460 527M1469 527L1470 528L1469 527z"/>
<path style="fill:#9be26c; stroke:none;" d="M127.333 528.667L127.667 529.333L127.333 528.667z"/>
<path style="fill:#a7f1ef; stroke:none;" d="M1451 528L1451 531L1452 531L1451 528z"/>
<path style="fill:#9be26c; stroke:none;" d="M1459 528L1458 531L1463 531L1463 529L1459 528z"/>
<path style="fill:#a7f1ef; stroke:none;" d="M1462 528L1463 529L1462 528M1470 528L1471 529L1470 528M1465 532L1466 532L1470 530C1467.39 528.502 1465.65 528.987 1465 532z"/>
<path style="fill:#9be26c; stroke:none;" d="M128 531L128 535L129 535L128 531z"/>
<path style="fill:#a7f1ef; stroke:none;" d="M1453 531L1453 532L1458 533L1453 531M1215 535L1216 535L1217 533L1218 536L1222 532L1217 532L1215 535z"/>
<path style="fill:#fbfefd; stroke:none;" d="M1219 535L1225 540L1222 537L1224 532L1219 535z"/>
<path style="fill:#a7f1ef; stroke:none;" d="M1463 532L1464 533L1463 532M1466 532L1460 533L1460 534C1462.34 534.583 1467.47 535.901 1466 532z"/>
<path style="fill:#9be26c; stroke:none;" d="M133 533L134 534L133 533M141.667 533.333L142.333 533.667L141.667 533.333M160 533L160 534L163 534L160 533M173 533L173 534L177 534L173 533z"/>
<path style="fill:#fbfefd; stroke:none;" d="M1216 533L1213 538L1213 539L1218 542L1220 542L1221 539L1217 539L1216 533z"/>
<path style="fill:#9be26c; stroke:none;" d="M130.667 534.333L131.333 534.667L130.667 534.333M144 534L145 535L144 534M155.667 534.333L156.333 534.667L155.667 534.333M179 534L179 535L182 535L179 534z"/>
<path style="fill:#a7f1ef; stroke:none;" d="M1223 534L1224 535L1223 534M1455.33 534.667L1455.67 535.333L1455.33 534.667M1459 534L1458 536L1460 536L1459 534z"/>
<path style="fill:#9be26c; stroke:none;" d="M129 535L130 536L129 535M145 535L146 536L145 535M151 535L152 536L151 535M182.667 535.333L183.333 535.667L182.667 535.333z"/>
<path style="fill:#a7f1ef; stroke:none;" d="M1222 535L1222 537L1224 537L1222 535z"/>
<path style="fill:#9be26c; stroke:none;" d="M146 536L147 537L146 536M148 536L149 537L148 536M185 536L186 537L185 536z"/>
<path style="fill:#a7f1ef; stroke:none;" d="M1214.67 536.333L1215.33 536.667L1214.67 536.333z"/>
<path style="fill:#9be26c; stroke:none;" d="M1217 536L1217 539L1221 539L1221 536L1217 536z"/>
<path style="fill:#a7f1ef; stroke:none;" d="M1456.67 536.333L1457.33 536.667L1456.67 536.333z"/>
<path style="fill:#9be26c; stroke:none;" d="M187 537L188 538L187 537z"/>
<path style="fill:#a7f1ef; stroke:none;" d="M1213 537L1214 538L1213 537M1224 537L1225 538L1224 537z"/>
<path style="fill:#9be26c; stroke:none;" d="M188 538L189 539L188 538z"/>
<path style="fill:#a7f1ef; stroke:none;" d="M1221 538L1221 540L1223 540L1221 538M1225.33 538.667L1225.67 539.333L1225.33 538.667z"/>
<path style="fill:#9be26c; stroke:none;" d="M190 539L191 540L190 539z"/>
<path style="fill:#a7f1ef; stroke:none;" d="M1214 539L1215 540L1214 539M1216 539L1217 540L1216 539z"/>
<path style="fill:#9be26c; stroke:none;" d="M191 540L192 541L191 540z"/>
<path style="fill:#a7f1ef; stroke:none;" d="M1217.33 540.667L1217.67 541.333L1217.33 540.667M1220.33 540.667L1220.67 541.333L1220.33 540.667z"/>
<path style="fill:#9be26c; stroke:none;" d="M192 542L193 543L192 542M193.333 543.667L193.667 544.333L193.333 543.667M200 543L200 544L208 544L200 543M196 544L197 545L196 544M211.667 544.333L212.333 544.667L211.667 544.333z"/>
<path style="fill:#a7f1ef; stroke:none;" d="M1576 546L1571 549L1571 550L1575 551L1578 547L1578 551L1582 551L1581 554L1582 554L1583 551L1578 546L1576 546z"/>
<path style="fill:#fbfefd; stroke:none;" d="M1576 547L1575 551L1579 554L1581 554L1582 551L1578 551L1578 547L1576 547M1571 550L1571 551L1573 552L1571 555L1576 558L1577 558L1578 554L1574 554L1574 550L1571 550z"/>
<path style="fill:#a7f1ef; stroke:none;" d="M1571 551L1571 554L1572 554L1573 551L1571 551z"/>
<path style="fill:#9be26c; stroke:none;" d="M1574 551L1578 554L1574 551z"/>
<path style="fill:#34883c; stroke:none;" d="M53 553L54 554L53 553z"/>
<path style="fill:#a7f1ef; stroke:none;" d="M1574 553L1575 554L1574 553M1578 553L1578 557L1579 557L1578 553M1570 554L1571 555L1570 554M1571 555L1572 556L1571 555M1574 555L1575 556L1574 555z"/>
<path style="fill:#34883c; stroke:none;" d="M57.3333 557.667L57.6667 558.333L57.3333 557.667z"/>
<path style="fill:#a7f1ef; stroke:none;" d="M1575 557L1576 558L1575 557M1577 557L1578 558L1577 557z"/>
<path style="fill:#34883c; stroke:none;" d="M23 558L24 559L23 558M28 558L29 559L28 558M15 559L16 560L15 559M26 559L27 560L26 559M64 562L66 564L64 562M62 564L63 565L62 564M15 566L16 567L15 566M10 567L11 568L10 567z"/>
<path style="fill:#6dc03e; stroke:none;" d="M562 570C562 589.331 561.236 606.538 555 625L554 625L555 614L546 622C550.028 613.499 555.052 603.655 554 594L553 594C545.344 606.252 534.896 619.652 523 628C520.31 618.567 519.101 612.79 521 603C515.778 606.194 513.365 613.253 512 619L511 619C509.543 609.087 509.014 604.128 514 595L513 594L502 603L513 576L486 606L482 612L488 601L460 615L482 584L467.674 596.76L434 623L433 623L425 616L426 619C438.601 625.568 448.697 636.457 464 630L456 611C464.279 618.93 469.699 631.051 481 635L482 616L484 616C484.078 622.362 486.125 629.666 492 633C489.338 619.171 499.389 606.474 510 599C502.263 609.65 499.625 621.156 498 634L518 621C513.512 627.05 510.221 632.258 512 640L530 632L520 647L549 651L547 640C556.921 648.419 560.484 660.412 575 663L575 662L557 651C565.872 648.232 574.101 649.061 580 657L581 657L578 644C582.396 648.382 584.311 654.485 589.039 658.815C603.197 671.78 617.232 664.736 629 654L624 665C634.367 662.989 642.538 659.388 651 653L644 667C658.035 662.32 671.974 653.75 682.996 643.911C688.134 639.324 693.634 629.13 700 627L701 622C692.403 627.201 688.792 638.846 680 644.397C667.594 652.229 649.271 641.994 639 636L641 645C622.161 636.188 612.925 626.836 604 608L603 608L605 632C594.489 624.816 588.501 615.097 585 603L584 603L582 632L581 632L568.4 596L562 570M146 572L147 573L146 572z"/>
<path style="fill:#34883c; stroke:none;" d="M1909 572L1910 573L1909 572z"/>
<path style="fill:#fbfefd; stroke:none;" d="M147 573L147 579C141.248 579.963 142.573 584.794 148 584C148.186 589.676 151.328 592.284 154 586C157.932 587.503 160.978 586.038 158 582L158 581L159 575L153 577L147 573z"/>
<path style="fill:#a7f1ef; stroke:none;" d="M150 573L151 574L150 573z"/>
<path style="fill:#6dc03e; stroke:none;" d="M153 574L154 575L153 574z"/>
<path style="fill:#34883c; stroke:none;" d="M80 575L81 576L80 575z"/>
<path style="fill:#a7f1ef; stroke:none;" d="M156 575L157 576L156 575M159 575L160 576L159 575M447 575L448 576L447 575z"/>
<path style="fill:#34883c; stroke:none;" d="M89 576L90 577L89 576z"/>
<path style="fill:#a7f1ef; stroke:none;" d="M160 576L160 579L161 579L160 576z"/>
<path style="fill:#fbfefd; stroke:none;" d="M445 576L447 582L443 588L450 587C452.127 593.448 457.278 587.361 462 587L457 576L455 576L453 580L445 576z"/>
<path style="fill:#a7f1ef; stroke:none;" d="M457 576L458 577L457 576z"/>
<path style="fill:#6dc03e; stroke:none;" d="M1151 576C1138.58 602.55 1136.4 630.682 1147 658L1139 659L1137 652L1136 652L1141 660C1140.99 666.335 1146.36 675.118 1152 678L1151 680C1159.1 685.087 1164.47 681.778 1165 672L1168 674L1184 650L1172 680L1186.77 666.911L1196 654L1196 661C1201.45 656.904 1200.83 645.293 1202 639L1203 639L1204 648L1205 648L1203 633L1202 633L1202 636L1201 636L1193 615L1192 615L1195 650C1180.8 645.173 1177.75 624.993 1176 612L1175 612C1171.79 622.75 1172.09 631.133 1164 640L1153.29 603L1151 576z"/>
<path style="fill:#a7f1ef; stroke:none;" d="M451 577L452 578L451 577M458 577L458 580L459 580L458 577z"/>
<path style="fill:#6dc03e; stroke:none;" d="M462 577L463 578L462 577z"/>
<path style="fill:#a7f1ef; stroke:none;" d="M145.667 578.333L146.333 578.667L145.667 578.333M453 578L454 579L453 578z"/>
<path style="fill:#34883c; stroke:none;" d="M90.3333 579.667L90.6667 580.333L90.3333 579.667z"/>
<path style="fill:#9be26c; stroke:none;" d="M152 579L154 581L152 579z"/>
<path style="fill:#6dc03e; stroke:none;" d="M336 579L337 580L336 579z"/>
<path style="fill:#a7f1ef; stroke:none;" d="M452 579L453 580L452 579z"/>
<path style="fill:#6dc03e; stroke:none;" d="M334 580L335 581L334 580z"/>
<path style="fill:#34883c; stroke:none;" d="M1150 580L1151 581L1150 580z"/>
<path style="fill:#6dc03e; stroke:none;" d="M286 581L287 582L286 581z"/>
<path style="fill:#a7f1ef; stroke:none;" d="M335 581L336 582L335 581z"/>
<path style="fill:#fbfefd; stroke:none;" d="M334 586C326.963 586.064 320.71 591.662 331 592C327.956 599.751 333.27 599.315 339 597C342.37 603.667 347.014 600.397 344 594C355.195 593.868 351.244 585.997 342 588C340.397 583.343 336.022 579.423 334 586z"/>
<path style="fill:#6dc03e; stroke:none;" d="M440 581L441 582L440 581z"/>
<path style="fill:#9be26c; stroke:none;" d="M152 582L153 583L152 582z"/>
<path style="fill:#a7f1ef; stroke:none;" d="M339 582L340 583L339 582z"/>
<path style="fill:#6dc03e; stroke:none;" d="M341 582L342 583L341 582z"/>
<path style="fill:#9be26c; stroke:none;" d="M452 582L451 585L454 586L455 583L452 582z"/>
<path style="fill:#a7f1ef; stroke:none;" d="M459 582L460 583L459 582M142 583L143 584L142 583M340 583L341 584L340 583M461 583L462 584L461 583M147 584L148 585L147 584z"/>
<path style="fill:#34883c; stroke:none;" d="M282 584L283 585L282 584M564 584L565 585L564 584z"/>
<path style="fill:#a7f1ef; stroke:none;" d="M341 585L342 586L341 585z"/>
<path style="fill:#34883c; stroke:none;" d="M1150.33 585.667L1150.67 586.333L1150.33 585.667z"/>
<path style="fill:#6dc03e; stroke:none;" d="M143 586L144 587L143 586z"/>
<path style="fill:#a7f1ef; stroke:none;" d="M154 586L155 587L154 586M326 586L327 587L326 586z"/>
<path style="fill:#6dc03e; stroke:none;" d="M624 586L625 587L624 586z"/>
<path style="fill:#a7f1ef; stroke:none;" d="M153.333 587.667L153.667 588.333L153.333 587.667M156 587L157 588L156 587M158 587L159 588L158 587M324 587L325 588L324 587M343 587L344 588L343 587M348 587L349 588L348 587M147 588L148 589L147 588M351 588L352 589L351 588z"/>
<path style="fill:#34883c; stroke:none;" d="M504 588L505 589L504 588z"/>
<path style="fill:#6dc03e; stroke:none;" d="M625 588L626 589L625 588M146 589L147 590L146 589M154 589L155 590L154 589M158 589L159 590L158 589z"/>
<path style="fill:#34883c; stroke:none;" d="M278 589L279 590L278 589z"/>
<path style="fill:#a7f1ef; stroke:none;" d="M323 589L324 590L323 589z"/>
<path style="fill:#6dc03e; stroke:none;" d="M442 589L443 590L442 589z"/>
<path style="fill:#a7f1ef; stroke:none;" d="M455 589L456 590L455 589z"/>
<path style="fill:#9be26c; stroke:none;" d="M336 591L336 592L339 591L337 593L337 594L341 591L336 591z"/>
<path style="fill:#34883c; stroke:none;" d="M502 590L503 591L502 590z"/>
<path style="fill:#a7f1ef; stroke:none;" d="M626 590L625 592L626 590z"/>
<path style="fill:#fbfefd; stroke:none;" d="M625 594L613 594L619 600C611.602 604.823 619.122 608.548 625 605C627.563 614.767 633.28 614.421 632 604L640 603C638.601 598.569 628.029 588.677 625 594z"/>
<path style="fill:#6dc03e; stroke:none;" d="M153 591L154 592L153 591z"/>
<path style="fill:#a7f1ef; stroke:none;" d="M324 591L325 592L324 591z"/>
<path style="fill:#34883c; stroke:none;" d="M475 591L476 592L475 591M80 592L81 593L80 592z"/>
<path style="fill:#a7f1ef; stroke:none;" d="M352 592L353 593L352 592M615 592L615 593L619 593L615 592z"/>
<path style="fill:#6dc03e; stroke:none;" d="M1243 592L1220 646L1219 646L1225 620L1224 620L1207 653L1206 649L1205 649L1208 655C1207.35 669.167 1225.22 666.104 1235 668L1231 658L1238 661L1240 647L1246 637L1245 637L1235 647C1240.09 633.775 1241.06 620.005 1242.09 606C1242.42 601.45 1244.56 596.361 1243 592M328 593L329 594L328 593z"/>
<path style="fill:#a7f1ef; stroke:none;" d="M330 593L331 594L330 593M351 593L352 594L351 593z"/>
<path style="fill:#6dc03e; stroke:none;" d="M465 593L466 594L465 593z"/>
<path style="fill:#34883c; stroke:none;" d="M474 593L475 594L474 593M504 593L505 594L504 593z"/>
<path style="fill:#a7f1ef; stroke:none;" d="M622 593L623 594L622 593z"/>
<path style="fill:#34883c; stroke:none;" d="M82 594L83 595L82 594z"/>
<path style="fill:#a7f1ef; stroke:none;" d="M329 594L330 595L329 594M344 594L345 595L344 594z"/>
<path style="fill:#34883c; stroke:none;" d="M500 594L499 596L500 594z"/>
<path style="fill:#a7f1ef; stroke:none;" d="M631 594L631 597L632 597L631 594z"/>
<path style="fill:#6dc03e; stroke:none;" d="M711.667 596.333L712.333 596.667L711.667 596.333M820 596C812.761 608.525 798.991 621.573 785 626C786.586 623.073 787.736 621.296 785 619L781 646L798 624L800 652L814 652L815 651L810 641L826 650L820 630L821 630L828 642L830 641C835.546 653.359 851.345 660.994 864 664L864 663C841.36 655.276 841.292 635.59 843 616L842 616L829 640L823 626L815 632L822 596L820 596z"/>
<path style="fill:#34883c; stroke:none;" d="M1896 596L1897 597L1896 596M88 597L89 598L88 597z"/>
<path style="fill:#a7f1ef; stroke:none;" d="M338 597L339 598L338 597M329 598L330 599L329 598M335 598L336 599L335 598z"/>
<path style="fill:#34883c; stroke:none;" d="M501 598L502 599L501 598z"/>
<path style="fill:#a7f1ef; stroke:none;" d="M616 598L617 599L616 598M637 598L638 599L637 598z"/>
<path style="fill:#fbfefd; stroke:none;" d="M710 598L710 603C704.512 604.522 701.42 608.788 709 610C710.163 615.577 713.669 616.48 716 611L722 611L721 602L715 603L710 598z"/>
<path style="fill:#a7f1ef; stroke:none;" d="M333 599L334 600L333 599z"/>
<path style="fill:#6dc03e; stroke:none;" d="M478 599L479 600L478 599z"/>
<path style="fill:#34883c; stroke:none;" d="M492 633C487.091 628.464 484.309 622.67 484 616L482 616L481 635L456 611L464 630C448.639 634.87 438.227 626.47 426 618L431 637L408 642C410.013 637.542 412.66 633.678 410 629C404.852 637.698 399.239 644.076 391 650L403 621C393.087 626.619 390.888 645.317 380 649C379.08 657.447 370.531 657.408 364 658.439C359.646 659.126 354.361 662.208 350 661.387C339.384 659.386 330.391 652.497 319 652L319 653L336 668L324 662C325.522 672.724 308.93 686.618 299.018 678.127C295.531 675.14 296.011 669.119 296 665L295 665C293.141 672.546 289.476 697.1 280 679L279 679C273.025 693.54 264.321 689.979 253 683C251.559 689.064 249.716 694.276 243 691L243 694L242 694L238 687L237 687L238 696C219.021 694.49 204.885 680.443 194 666L193 666L199 692C184.982 686.124 173.297 668.469 167 655L165 656L154 640L145 634C150.394 646.518 157.704 656.745 158 671C150.306 666.11 145.402 660.417 142 652L141 652L142 664L141 664C132.713 646.274 116.812 638.559 121 616C112.817 621.816 115.401 640.389 117 649L116 649C113.532 641.878 108.526 628.992 102 625L108 643C94.0393 640.598 70.4832 632.741 59.3002 624.035C51.4182 617.898 46.8181 606.477 38 602L44 620L28 612L33 622C26.1401 619.678 6.1549 616.597 1.02778 623.653C-0.987123 626.426 0 631.771 0 635L0 662L0 768L1920 768L1920 700L1914.33 688L1904.33 659L1900 650C1900 655.854 1902.24 663.454 1900.27 669C1893.42 688.267 1863.81 707.854 1845 713L1845 712C1849.28 709.158 1852.06 702.944 1853 698L1837 708L1836 704L1835 704L1833 710L1826 711L1831 700C1827.34 702.315 1824.99 705.905 1821 707.956C1800.76 718.356 1797.82 698.222 1793 683C1788.79 688.292 1790 695.589 1790 702L1780 690C1780.1 697.725 1781.88 703.472 1786 710C1770.41 708.641 1758.92 698.887 1751 686L1750 686L1751 697C1742.62 696.315 1735.11 695.637 1735 686L1729 694L1720 694L1732 679L1713 687L1718 668C1710.66 670.159 1704.52 675.213 1701 682L1700 682C1700 667.272 1706 658.199 1711 645C1699.33 652.327 1694.04 666.764 1694 680L1685 665L1684 665L1684 681C1672.34 679.702 1667.35 665.74 1659 659L1667 677C1648 681.916 1642.69 669.993 1627 663L1633 683L1610 688C1612.74 682.143 1615.64 675.481 1614 669L1613 669C1611.3 680.323 1602.43 691.404 1592 696L1592 695C1599.19 690.85 1604.37 673.898 1605 666C1597.09 670.913 1587.2 688.572 1583 697L1582 697L1578 677L1577 677L1569 696C1568.3 702.884 1560.45 706.24 1554 706.681C1543.69 707.386 1531.07 697.881 1520 697L1534 710L1526 707L1525 708L1525 718L1519 704C1511.47 708.074 1517.9 723.813 1508.98 724.713C1502.03 725.415 1499.05 714.513 1496.33 709.714C1487.51 694.105 1472.61 675.315 1471 657L1470 657C1463.9 671.189 1463.95 686.98 1461.79 702C1460.5 710.998 1458.19 719.821 1458 729L1453 727L1450 739L1449 739L1445 735L1442 737L1448 719L1432 728L1432 731L1429 730C1426.58 740.353 1417.87 732.746 1412 730L1414 727C1406.39 724.679 1399.92 718.521 1397 711L1395 712L1394 709L1400 734C1392.4 735.199 1381.22 722.965 1392 720L1394 715L1380 719L1360 691L1362 692L1362 691L1351 685L1357 705L1361 717C1355.47 714.966 1356.05 711.131 1357 706L1352 712L1351 712L1344 698L1343 698L1344 710L1343 710C1335.09 694.778 1321.05 685.987 1321 667L1320 667L1317 676L1319 694L1318 694L1306 670L1305 670C1303.72 676.164 1307.13 683.554 1310 689C1304.45 688.045 1299.29 685.575 1294 683.692C1279.34 678.475 1254.68 673.464 1249.74 656C1247.35 647.562 1251 634.037 1251 625L1250 625C1249.15 630.079 1242.84 647.71 1240 647L1238 661L1231 658L1235 668C1225.3 665.491 1208.22 669.253 1208 655L1203 639L1202 639L1196 661L1196 654L1186.14 666.911L1172 680C1177.62 671.402 1183.54 660.422 1184 650C1177.79 654.996 1170.52 666.412 1168 674L1165 672C1163.92 681.785 1159.01 683.449 1151 680L1152 678C1147.05 674.179 1141.47 666.411 1141 660C1136.07 655.699 1134.44 648.226 1133 642L1132 642L1133 664L1131 663L1131 685L1130 680L1122 672L1126 688L1100 680L1115 694L1105 691L1105 700C1093.51 693.804 1085.66 668.301 1084 656L1083 656L1080 706L1079 706L1079 690L1076 693L1077 684L1069 698L1066 696L1068 698L1068 699C1061.57 703.936 1057.52 715.02 1049 717.13C1045.95 717.884 1036.63 714.432 1038 711L1038 710L1033 709L1033 714L1032 714L1020 689C1011.26 686.406 1004.13 668.363 1003 660L1001 660L998 717L974 695L978 712L977 712L958 669L957 669L958 698L940 675L942 676L942 675L931 668L940 700C932.693 696.355 927.689 690.709 925 683L923 683L924 693L919 686C905.319 682.079 901 661.122 901 649L900 649L900 682L899 682L887 659L886 659L891 674C870.324 668.345 842.238 659.426 830 641L828 642L821 630L820 630L826 650L810 641L815 651L814 652L800 652L798 624L781 646L786 614L785 614C782.996 627.561 774.024 649.612 760.999 655.991C751.657 660.566 738.165 660.496 728 663L729 648L696 659L700 648L682 662L699 626L698 626C683.798 645.159 665.283 656.995 644 667L651 653L624 665L629 654C624.85 656.508 622.461 660.869 617.999 663.164C607.118 668.762 595.058 664.634 587.174 655.985C583.805 652.289 582.122 646.721 578 644L585 665C576.202 662.881 568.249 661.797 561.015 655.671C555.677 651.152 553.042 643.395 547 640L549 651L520 647L530 632L512 640C510.672 631.946 514.552 627.766 518 621C509.492 622.18 503.533 627.798 498 634C500.464 620.776 503.669 610.896 510 599C498.739 604.252 488.507 620.28 492 633M551 599L552 600L551 599z"/>
<path style="fill:#6dc03e; stroke:none;" d="M612 599L613 600L612 599z"/>
<path style="fill:#a7f1ef; stroke:none;" d="M618 599L619 600L618 599z"/>
<path style="fill:#9be26c; stroke:none;" d="M625 602L626 602L629 601L625 602z"/>
<path style="fill:#a7f1ef; stroke:none;" d="M639 599L640 600L639 599M709 599L710 600L709 599z"/>
<path style="fill:#6dc03e; stroke:none;" d="M716 599L717 600L716 599z"/>
<path style="fill:#34883c; stroke:none;" d="M1241 599L1242 600L1241 599z"/>
<path style="fill:#a7f1ef; stroke:none;" d="M340 600L341 601L340 600z"/>
<path style="fill:#34883c; stroke:none;" d="M466.667 600.333L467.333 600.667L466.667 600.333M494 600L495 601L494 600M500 600L501 601L500 600M566.333 600.667L566.667 601.333L566.333 600.667z"/>
<path style="fill:#a7f1ef; stroke:none;" d="M617 600L618 601L617 600M714 600L715 601L714 600z"/>
<path style="fill:#6dc03e; stroke:none;" d="M721 600L722 601L721 600z"/>
<path style="fill:#34883c; stroke:none;" d="M819 600L818 603L819 600z"/>
<path style="fill:#a7f1ef; stroke:none;" d="M345 601L346 602L345 601z"/>
<path style="fill:#6dc03e; stroke:none;" d="M347 601L348 602L347 601M483 601L484 602L483 601M346 602L347 603L346 602z"/>
<path style="fill:#34883c; stroke:none;" d="M465 602L464 604L465 602M468 602L467 604L468 602M492.667 602.333L493.333 602.667L492.667 602.333M549 602L550 603L549 602M551 602L552 603L551 602z"/>
<path style="fill:#a7f1ef; stroke:none;" d="M615 602L616 603L615 602M709 602L710 603L709 602z"/>
<path style="fill:#6dc03e; stroke:none;" d="M722 602L723 603L722 602z"/>
<path style="fill:#34883c; stroke:none;" d="M1867 602L1866 604L1868 604L1867 602z"/>
<path style="fill:#6dc03e; stroke:none;" d="M344 603L345 604L344 603z"/>
<path style="fill:#34883c; stroke:none;" d="M498 603L499 604L498 603M500 603L501 604L500 603z"/>
<path style="fill:#a7f1ef; stroke:none;" d="M638 603L639 604L638 603M707 603L708 604L707 603M721.333 603.667L721.667 604.333L721.333 603.667z"/>
<path style="fill:#6dc03e; stroke:none;" d="M348 604L349 605L348 604z"/>
<path style="fill:#34883c; stroke:none;" d="M491 604L492 605L491 604M550 604L549 607L550 604z"/>
<path style="fill:#a7f1ef; stroke:none;" d="M632 604L632 605L636 605L632 604z"/>
<path style="fill:#34883c; stroke:none;" d="M816 604L817 605L816 604M392 605L394 608L392 605M395.333 605.667L395.667 606.333L395.333 605.667M461 605L463 607L461 605M465 605L466 606L465 605M507.333 605.667L507.667 606.333L507.333 605.667z"/>
<path style="fill:#a7f1ef; stroke:none;" d="M624 605L625 606L624 605M703 605L704 606L703 605z"/>
<path style="fill:#9be26c; stroke:none;" d="M712 605L713 606L712 605z"/>
<path style="fill:#6dc03e; stroke:none;" d="M722 605L723 606L722 605z"/>
<path style="fill:#34883c; stroke:none;" d="M818.333 605.667L818.667 606.333L818.333 605.667z"/>
<path style="fill:#a7f1ef; stroke:none;" d="M625.333 606.667L625.667 607.333L625.333 606.667z"/>
<path style="fill:#9be26c; stroke:none;" d="M714 606L711 607L711 608C713.143 608.265 714.419 608.384 714 606z"/>
<path style="fill:#34883c; stroke:none;" d="M815 606L814 608L815 606M458 607L459 608L458 607M482 607L483 608L482 607M488 607L489 608L488 607z"/>
<path style="fill:#a7f1ef; stroke:none;" d="M617 607L618 608L617 607M620 607L621 608L620 607M632 607L633 608L632 607z"/>
<path style="fill:#6dc03e; stroke:none;" d="M638 607L639 608L638 607z"/>
<path style="fill:#a7f1ef; stroke:none;" d="M720 607L721 608L720 607z"/>
<path style="fill:#34883c; stroke:none;" d="M99 608L100 609L99 608M396 608L397 609L396 608M544 608L545 609L544 608M566.333 608.667L566.667 609.333L566.333 608.667z"/>
<path style="fill:#a7f1ef; stroke:none;" d="M721 608L722 609L721 608z"/>
<path style="fill:#6dc03e; stroke:none;" d="M767 608C753.763 625.855 729.102 639.736 707 643L713 624L712 624C706.598 632.002 701.236 637.834 693 643L695 637L694 637L682 662C689.838 658.911 694.532 654.258 700 648L696 659C708.33 658.027 718.528 654.673 729 648L728 663C738.294 661.061 752.644 660.604 761.996 655.991C773.361 650.385 780.594 632.682 783 621L782 621C775.48 628.587 762.862 630.854 754 635C758.961 629.487 769.709 615.829 767 608M787 608L786 618L787 618L787 608z"/>
<path style="fill:#34883c; stroke:none;" d="M1240.33 608.667L1240.67 609.333L1240.33 608.667M459 609L460 610L459 609M486.333 609.667L486.667 610.333L486.333 609.667M817 609L818 610L817 609M1142.33 609.667L1142.67 610.333L1142.33 609.667M478.667 610.333L479.333 610.667L478.667 610.333M545.333 610.667L545.667 611.333L545.333 610.667M387 611L385 614L387 611M453 611L454 612L453 611M517 611L518 612L517 611z"/>
<path style="fill:#a7f1ef; stroke:none;" d="M716 611L717 612L716 611M721 611L722 612L721 611z"/>
<path style="fill:#34883c; stroke:none;" d="M810 611L811 612L810 611M813.667 611.333L814.333 611.667L813.667 611.333M1237 611L1238 612L1237 611M487 612L488 613L487 612M541 612L542 613L541 612M569 612L570 613L569 612z"/>
<path style="fill:#a7f1ef; stroke:none;" d="M715 612L716 613L715 612z"/>
<path style="fill:#34883c; stroke:none;" d="M1861 612L1862 613L1861 612M391 613L392 614L391 613M396 613L397 614L396 613M471 613L472 614L471 613M484 613L484 615L486 615L484 613M506.333 613.667L506.667 614.333L506.333 613.667M515 613L516 614L515 613M543 613L544 614L543 613M546 613L547 614L546 613M584.333 613.667L584.667 614.333L584.333 613.667M604 613L605 614L604 613z"/>
<path style="fill:#a7f1ef; stroke:none;" d="M631 613L632 614L631 613M709 613L710 614L709 613z"/>
<path style="fill:#34883c; stroke:none;" d="M811 613L810 615L811 613M450 614L451 615L450 614M540 614L539 616L540 614z"/>
<path style="fill:#6dc03e; stroke:none;" d="M626.667 614.333L627.333 614.667L626.667 614.333M718 614L719 615L718 614M784 614L784 618L785 618L784 614z"/>
<path style="fill:#34883c; stroke:none;" d="M116 615L117 616L116 615M383 615L382 617L383 615M386 615L387 616L386 615M395 615L396 616L395 615M447 615L448 616L447 615M466 615L467 616L466 615M469.667 615.333L470.333 615.667L469.667 615.333M481 615L482 616L481 615M508.333 615.667L508.667 616.333L508.333 615.667M517 615L518 616L517 615M587 615L588 616L587 615z"/>
<path style="fill:#6dc03e; stroke:none;" d="M628 615L629 616L628 615z"/>
<path style="fill:#a7f1ef; stroke:none;" d="M710 615L711 616L710 615z"/>
<path style="fill:#34883c; stroke:none;" d="M806 615L808 617L806 615M1863 615L1864 616L1863 615M585.333 616.667L585.667 617.333L585.333 616.667M1154 616L1155 617L1154 616M1235 616L1236 617L1235 616M1238 616L1239 617L1238 616M371 617L370 620L371 617M538 617L537 619L538 617M545.333 617.667L545.667 618.333L545.333 617.667M216 618L217 619L216 618M358.333 618.667L358.667 619.333L358.333 618.667M571 618L572 619L571 618M588 618L589 619L588 618M760.333 618.667L760.667 619.333L760.333 618.667M762 618L763 619L762 618z"/>
<path style="fill:#6dc03e; stroke:none;" d="M783 618L783 621L784 621L783 618z"/>
<path style="fill:#34883c; stroke:none;" d="M802 618L803 619L802 618M382 619L383 620L382 619M535 619L534 621L535 619M540 619L541 620L540 619M551 619L552 620L551 619M1234 619L1235 620L1234 619z"/>
<path style="fill:#6dc03e; stroke:none;" d="M1264 625C1248.27 631.657 1244.39 653.644 1255.68 666.13C1265.97 677.503 1294.85 687.482 1310 689L1305 670L1306 670C1306.55 678.039 1313.6 687.352 1318 694L1319 694L1317 676L1319 671L1318 671L1318 675C1312.99 671.313 1304.38 666.37 1302.57 660C1301.29 655.495 1306.04 650.182 1308.62 647C1316.63 637.102 1327.75 629.266 1335 619C1314.54 626.745 1296.79 641.323 1276 648.947C1270.42 650.991 1257.38 656.904 1254.7 647.981C1252.55 640.86 1261.34 631.165 1264 625z"/>
<path style="fill:#34883c; stroke:none;" d="M215 620L216 621L215 620M439 620L438 622L439 620M447 620L448 621L447 620M505.333 620.667L505.667 621.333L505.333 620.667M518 620L519 621L518 620M544 620L545 621L544 620M799 620L798 622L799 620z"/>
<path style="fill:#6dc03e; stroke:none;" d="M880 620L881 621L880 620z"/>
<path style="fill:#34883c; stroke:none;" d="M508 621L509 622L508 621M548 623L551 621L548 623z"/>
<path style="fill:#6dc03e; stroke:none;" d="M882 621L883 622L882 621z"/>
<path style="fill:#fbfefd; stroke:none;" d="M884 621L884 627C875.138 627.999 878.12 635.137 886 632C889.501 637.664 892.43 632.898 897 631L893 626L894 623L884 621z"/>
<path style="fill:#a7f1ef; stroke:none;" d="M886 621L887 622L886 621z"/>
<path style="fill:#34883c; stroke:none;" d="M146 622L147 623L146 622M379 622L380 623L379 622M382 622L383 623L382 622M436 622L437 623L436 622M440 622L441 623L440 622M532 622L533 623L532 622M606 622L607 623L606 622M759 622L760 623L759 622z"/>
<path style="fill:#a7f1ef; stroke:none;" d="M883 622L883 625L884 625L883 622M893 622L894 623L893 622z"/>
<path style="fill:#34883c; stroke:none;" d="M355 623L356 624L355 623M377 623L378 624L377 623M504 623L505 624L504 623M506 623L507 624L506 623M519 623L520 624L519 623M557 623L558 624L557 623M592 623L594 626L592 623z"/>
<path style="fill:#6dc03e; stroke:none;" d="M764 623L765 624L764 623z"/>
<path style="fill:#34883c; stroke:none;" d="M839 623L840 624L839 623z"/>
<path style="fill:#6dc03e; stroke:none;" d="M1006 623L981 688L980 688L981 662L960 675L977 712L978 712L974 695L998 717C1002.84 699.651 1001.72 677.894 1001 660L1003 660L1005 670L1006 670L1008 623L1006 623M1250 623L1251 631L1252 631L1250 623z"/>
<path style="fill:#34883c; stroke:none;" d="M109 624L110 625L109 624z"/>
<path style="fill:#6dc03e; stroke:none;" d="M348 624L349 625L348 624z"/>
<path style="fill:#34883c; stroke:none;" d="M404 624L405 625L404 624M534 624L535 625L534 624M813 624L814 625L813 624z"/>
<path style="fill:#6dc03e; stroke:none;" d="M1076 624C1069.16 645.026 1067 664.981 1067 687L1066 687L1064 682L1063 682L1059 703L1048 691L1052 711C1044.14 707.452 1039.2 704.01 1034 697L1033 697L1034 706L1020 683L1016 686L1020 689L1032 714L1033 714L1033 709L1038 710L1038 711L1036 712C1051.36 723.712 1058.02 710.532 1068 699L1068 698L1066 696L1069 698L1077 684L1076 693L1079 690L1079 706L1080 706L1082 665L1083 651L1082 651L1082 655L1081 655L1076 624z"/>
<path style="fill:#34883c; stroke:none;" d="M530.333 625.667L530.667 626.333L530.333 625.667M556 625L556 628L557 628L556 625M559.333 625.667L559.667 626.333L559.333 625.667M607 625L608 626L607 625z"/>
<path style="fill:#6dc03e; stroke:none;" d="M746 625L747 626L746 625z"/>
<path style="fill:#34883c; stroke:none;" d="M791 625L792 626L791 625M405 626L408 629L405 626M611 626L612 627L611 626M752 626L753 627L752 626M1006 626L1007 627L1006 626z"/>
<path style="fill:#6dc03e; stroke:none;" d="M1249.33 626.667L1249.67 627.333L1249.33 626.667z"/>
<path style="fill:#34883c; stroke:none;" d="M1325 626L1324 628L1325 626M1861.33 626.667L1861.67 627.333L1861.33 626.667M210 627L211 628L210 627M371 627L372 628L371 627M403.333 627.667L403.667 628.333L403.333 627.667M521 627L522 628L521 627M527 627L528 628L527 627M592 627L593 628L592 627M595 627L596 628L595 627M777 627L777 630L778 630L777 627M837 627L838 628L837 627z"/>
<path style="fill:#a7f1ef; stroke:none;" d="M879 627L880 628L879 627z"/>
<path style="fill:#9be26c; stroke:none;" d="M887 628L887 629L891 629L887 628z"/>
<path style="fill:#34883c; stroke:none;" d="M1598 627L1599 628L1598 627M141 628L142 629L141 628M411 628L412 629L411 628z"/>
<path style="fill:#6dc03e; stroke:none;" d="M415 628L416 629L415 628z"/>
<path style="fill:#34883c; stroke:none;" d="M558 628L559 629L558 628M607 628L608 629L607 628z"/>
<path style="fill:#6dc03e; stroke:none;" d="M698.333 628.667L698.667 629.333L698.333 628.667z"/>
<path style="fill:#34883c; stroke:none;" d="M747 628L748 629L747 628M774 628L775 629L774 628M791 628L792 629L791 628M401 629L402 630L401 629M755 629L756 630L755 629M771 629L772 630L771 629M786 629L787 630L786 629M836 629L838 632L836 629M1221 629L1222 630L1221 629z"/>
<path style="fill:#6dc03e; stroke:none;" d="M1248 629L1249 630L1248 629z"/>
<path style="fill:#34883c; stroke:none;" d="M1319 629L1320 630L1319 629M1322 629L1321 631L1322 629M405 630L406 631L405 630M555 630L556 631L555 630M611 630L612 631L611 630z"/>
<path style="fill:#6dc03e; stroke:none;" d="M697 630L697 633L698 633L697 630z"/>
<path style="fill:#34883c; stroke:none;" d="M745 630L746 631L745 630M1197 630L1198 631L1197 630M1230 630L1231 631L1230 630M1317 630L1318 631L1317 630M136 631L137 632L136 631M370.667 631.333L371.333 631.667L370.667 631.333M374 631L375 632L374 631M403 631L404 632L403 631M521 631L522 632L521 631M558 631L559 632L558 631M600 631L601 632L600 631M613 631L614 632L613 631M709 631L710 632L709 631M754 631L752 634L754 631M767 631L768 632L767 631M818 631L819 632L818 631z"/>
<path style="fill:#a7f1ef; stroke:none;" d="M895 631L896 632L895 631z"/>
<path style="fill:#34883c; stroke:none;" d="M1006 631L1006 634L1007 634L1006 631M1075 631L1076 632L1075 631M1152 631L1153 632L1152 631M1158 631L1159 632L1158 631M284.333 632.667L284.667 633.333L284.333 632.667M339.333 632.667L339.667 633.333L339.333 632.667M353 632L354 633L353 632M356.333 632.667L356.667 633.333L356.333 632.667M616 632L617 633L616 632z"/>
<path style="fill:#a7f1ef; stroke:none;" d="M877 632L878 633L877 632M885 632L886 633L885 632z"/>
<path style="fill:#34883c; stroke:none;" d="M1234 632L1235 633L1234 632z"/>
<path style="fill:#6dc03e; stroke:none;" d="M1247 632L1248 633L1247 632z"/>
<path style="fill:#34883c; stroke:none;" d="M1313 632L1314 633L1313 632M351 633L352 634L351 633M364.333 633.667L364.667 634.333L364.333 633.667M428 633L429 634L428 633M583 633L584 634L583 633M603.333 633.667L603.667 634.333L603.333 633.667z"/>
<path style="fill:#6dc03e; stroke:none;" d="M696.333 633.667L696.667 634.333L696.333 633.667z"/>
<path style="fill:#34883c; stroke:none;" d="M708.333 633.667L708.667 634.333L708.333 633.667M836 633L837 634L836 633z"/>
<path style="fill:#6dc03e; stroke:none;" d="M873 633L874 634L873 633z"/>
<path style="fill:#a7f1ef; stroke:none;" d="M879 633L880 634L879 633M882 633L883 634L882 633M886 633L887 634L886 633z"/>
<path style="fill:#34883c; stroke:none;" d="M1257 633L1258 634L1257 633M289 634L290 635L289 634M617 634L618 635L617 634M833.333 634.667L833.667 635.333L833.333 634.667M1171 634L1170 636L1171 634z"/>
<path style="fill:#6dc03e; stroke:none;" d="M1246.33 634.667L1246.67 635.333L1246.33 634.667z"/>
<path style="fill:#34883c; stroke:none;" d="M1253 634L1252 637L1253 637L1254 637L1253 634M416 635L417 636L416 635M601.333 635.667L601.667 636.333L601.333 635.667M606 635L607 636L606 635z"/>
<path style="fill:#6dc03e; stroke:none;" d="M695.333 635.667L695.667 636.333L695.333 635.667z"/>
<path style="fill:#34883c; stroke:none;" d="M758 635L757 637L757 638C759.158 637.022 759.501 636.812 758 635z"/>
<path style="fill:#6dc03e; stroke:none;" d="M879 635L880 636L879 635z"/>
<path style="fill:#a7f1ef; stroke:none;" d="M887 635L888 636L887 635M891 635L892 636L891 635z"/>
<path style="fill:#6dc03e; stroke:none;" d="M1130 635L1131 646L1132 646C1132.51 641.882 1133.66 637.787 1130 635z"/>
<path style="fill:#34883c; stroke:none;" d="M1174 635L1175 636L1174 635M1313 635L1314 636L1313 635M131 636L132 637L131 636M350 636L351 637L350 636M755 636L756 637L755 636z"/>
<path style="fill:#a7f1ef; stroke:none;" d="M888 636L888 637L891 637L888 636z"/>
<path style="fill:#34883c; stroke:none;" d="M1306 636L1307 637L1306 636M246 637L247 638L246 637M289 637L290 638L289 637M621 637L622 638L621 637z"/>
<path style="fill:#6dc03e; stroke:none;" d="M886 637L887 638L886 637z"/>
<path style="fill:#34883c; stroke:none;" d="M1172 637L1173 638L1172 637M1304 637L1305 638L1304 637M1309 637L1310 638L1309 637M1314 637L1315 638L1314 637M356.333 638.667L356.667 639.333L356.333 638.667M703 638L702 640L703 638M730 638L731 639L730 638M754 638L755 639L754 638M1074.33 638.667L1074.67 639.333L1074.33 638.667M1226 638L1227 639L1226 638M247 639L248 640L247 639M290 639L291 640L290 639M348 639L349 640L348 639M362 639L363 640L362 639M605.667 639.333L606.333 639.667L605.667 639.333M1001 639L1002 640L1001 639M1253 639L1254 640L1253 639M293 640L294 641L293 640M353 640L354 641L353 640M368 640L369 641L368 640M371 640L372 641L371 640M400 640L401 641L400 640M551 640L552 641L551 640M625 640L625 641L628 642L625 640M819.333 640.667L819.667 641.333L819.333 640.667z"/>
<path style="fill:#9be26c; stroke:none;" d="M822 640L825 648L822 640z"/>
<path style="fill:#34883c; stroke:none;" d="M840 640L841 641L840 640M1195.33 640.667L1195.67 641.333L1195.33 640.667M1311 640L1310 642L1311 640M1601 640L1602 641L1601 640M374 641L375 642L374 641M705 641L706 642L705 641M1218 641L1219 642L1218 641M1235 641L1236 642L1235 641M1298 641L1299 642L1298 641M1307 641L1308 642L1307 641M295 642L296 643L295 642M370.667 642.333L371.333 642.667L370.667 642.333M624 642L625 643L624 642M644 642L646 647L647 647L649 645L649 644L644 642M698 642L699 643L698 642M702 642L703 643L702 642z"/>
<path style="fill:#6dc03e; stroke:none;" d="M1107 642L1109 677L1096 674L1097 680L1090 675C1092.48 682.718 1096.59 697.271 1105 700L1105 691L1115 694L1100 680L1126 688L1122 672L1130 680L1131 685L1131 663L1133 664L1133 663L1133 648L1132 648L1132 659L1115 649L1115 657L1114 657L1109 642L1107 642M1133 642L1133 645L1134 645L1133 642z"/>
<path style="fill:#34883c; stroke:none;" d="M1233 642L1234 643L1233 642M1296 642L1297 643L1296 642M353 643L354 644L353 643z"/>
<path style="fill:#9be26c; stroke:none;" d="M347 660C351.891 662.102 355.131 660.06 360 658.757C364.797 657.473 372.961 658.372 376.547 654.566C381.475 649.337 372.341 644.318 368 643.497C357.069 641.43 349.347 650.231 347 660z"/>
<path style="fill:#34883c; stroke:none;" d="M631.667 643.333L632.333 643.667L631.667 643.333M642 643L644 645L642 643M696 643L697 644L696 643M1223 643L1224 644L1223 643M250 644L251 645L250 644M634 644L635 645L634 644M710 644L709 647L710 644M719 644L720 645L719 644z"/>
<path style="fill:#6dc03e; stroke:none;" d="M901 644L902 664L903 664L903 644L901 644z"/>
<path style="fill:#34883c; stroke:none;" d="M1177 644L1178 645L1177 644M1234 644L1235 645L1234 644M1241 644L1242 645L1241 644M1291 644L1292 645L1291 644M1711 644L1712 645L1711 644M202 645L202 648L203 648L202 645M624 645L625 646L624 645M704 645L705 646L704 645M1184 645L1185 646L1184 645M1239 645L1240 646L1239 645M1289 645L1290 646L1289 645M1307 645L1308 646L1307 645M632 646L633 647L632 646M648 646L649 647L648 646M656 646L657 647L656 646M694 648L697 647L694 648z"/>
<path style="fill:#6dc03e; stroke:none;" d="M1134.33 646.667L1134.67 647.333L1134.33 646.667z"/>
<path style="fill:#34883c; stroke:none;" d="M1293 646L1294 647L1293 646z"/>
<path style="fill:#6dc03e; stroke:none;" d="M1443 646C1446.25 670.161 1441.42 689.552 1436 713L1435 713L1434 702L1426 713L1425 713L1417 674L1416 674L1406 719L1405 719C1400.12 709.448 1402.31 703.967 1404 694L1394 707C1390.33 697.865 1396.18 691.316 1401 684L1385 693L1406 667L1364 693L1364 692L1374 683C1365.66 685.379 1360.63 687.694 1352 685L1362 691L1362 692L1360 691L1360 692L1380 719L1394 715L1392 720C1380.86 721.676 1391 737.136 1400 734L1394 709L1395 712L1397 711C1398.88 718.877 1406.17 725.536 1414 727L1412 730C1416.7 733.112 1429.18 741.546 1429 730L1432 731L1432 728L1448 719L1442 737L1445 735L1449 739L1450 739C1452.92 735.051 1453.94 731.862 1453 727L1458 729C1458.31 721.678 1461.42 713.254 1460.2 706C1458.55 696.147 1452.98 686.391 1451.25 676C1449.64 666.377 1449.34 653.86 1443 646z"/>
<path style="fill:#34883c; stroke:none;" d="M207 647L208 648L207 647M278 647L279 648L278 647M634 647L635 648L634 647M692 647L693 648L692 647M706 647L707 648L706 647M809 647L810 648L809 647M1071 647L1072 648L1071 647M1186 647L1187 648L1186 647M1214 647L1215 648L1214 647M1604 647L1605 648L1604 647M351 648L352 649L351 648M378 648L379 649L378 648M1073 648L1074 649L1073 648M1184 648L1186 651L1184 648M1196 648L1197 649L1196 648M1211 648L1212 649L1211 648M1596 648L1597 649L1596 648z"/>
<path style="fill:#9be26c; stroke:none;" d="M557 651C562.713 658.739 572.668 662.742 582 664C581.321 650.947 567.978 646.348 557 651z"/>
<path style="fill:#34883c; stroke:none;" d="M592 649L593 650L592 649z"/>
<path style="fill:#6dc03e; stroke:none;" d="M899 649L899 652L900 652L899 649M1135.33 649.667L1135.67 650.333L1135.33 649.667z"/>
<path style="fill:#34883c; stroke:none;" d="M1150.33 649.667L1150.67 650.333L1150.33 649.667M1279 649L1280 650L1279 649M577 650L578 651L577 650M589 650L590 651L589 650M844 650L846 653L844 650M1108 650L1109 651L1108 650M1189 650L1190 651L1189 650M1198 650L1199 651L1198 650M1216 650L1217 651L1216 650M1303 650L1304 651L1303 650M1191 651L1192 652L1191 651M1196.33 651.667L1196.67 652.333L1196.33 651.667M1209 651L1210 652L1209 651M1212 651L1213 652L1212 651M1234 651L1235 652L1234 651M1606 651L1607 652L1606 651M228 652L229 653L228 652M258 652L256 655L258 652M701 652L702 653L701 652z"/>
<path style="fill:#6dc03e; stroke:none;" d="M898 652L897 669L898 669L898 652z"/>
<path style="fill:#34883c; stroke:none;" d="M1146 652L1147 653L1146 652M1253 652L1253 654L1255 654L1253 652M1276.67 652.333L1277.33 652.667L1276.67 652.333M1302 652L1303 653L1302 652z"/>
<path style="fill:#6dc03e; stroke:none;" d="M883 653L885 661L886 661L887 659L889 664L890 664L883 653z"/>
<path style="fill:#34883c; stroke:none;" d="M1110 653L1111 654L1110 653M1208.33 653.667L1208.67 654.333L1208.33 653.667M1236.33 653.667L1236.67 654.333L1236.33 653.667M1251 653L1252 654L1251 653M1605.33 653.667L1605.67 654.333L1605.33 653.667M263 654L264 655L263 654M1186 654L1187 655L1186 654M1197 654L1198 655L1197 654M1259.67 654.333L1260.33 654.667L1259.67 654.333M1266.67 654.333L1267.33 654.667L1266.67 654.333M1863 654L1864 655L1863 654M230 655L231 656L230 655M258 655L259 656L258 655M699 655L700 656L699 655M848 655L849 656L848 655M1111 655L1112 656L1111 655M1120 655L1121 656L1120 655M1177 655L1178 656L1177 655M1212 655L1213 656L1212 655M1251 655L1252 656L1251 655M1298 655L1300 657L1298 655M1603 655L1604 656L1603 655M1791 655L1790 657L1791 655M1818 655L1819 656L1818 655M1861 655L1862 656L1861 655M1898 655L1899 656L1898 655M171 656L171 659L172 659L171 656M277 656L278 657L277 656z"/>
<path style="fill:#6dc03e; stroke:none;" d="M1084 656L1085 664L1086 664L1084 656z"/>
<path style="fill:#34883c; stroke:none;" d="M1148 656L1149 657L1148 656z"/>
<path style="fill:#6dc03e; stroke:none;" d="M1470 656L1471 657L1470 656z"/>
<path style="fill:#34883c; stroke:none;" d="M1595 656L1596 657L1595 656M1598 656L1599 657L1598 656M1609 656L1610 657L1609 656M229 657L230 658L229 657M285 657L286 658L285 657M1122 657L1123 658L1122 657M1150 657L1150 660L1151 660L1150 657z"/>
<path style="fill:#6dc03e; stroke:none;" d="M1469 657L1470 658L1469 657z"/>
<path style="fill:#34883c; stroke:none;" d="M238 658L239 659L238 658M271 658L271 659L274 659L271 658z"/>
<path style="fill:#6dc03e; stroke:none;" d="M360 658L360 659L364 659L360 658M581 658L582 659L581 658M861 658L862 659L861 658M955 658C955.097 669.73 958.956 678.181 945 682L945 683L958 698C959.098 687.962 960.214 666.537 955 658z"/>
<path style="fill:#34883c; stroke:none;" d="M1446.33 658.667L1446.67 659.333L1446.33 658.667M1522.33 658.667L1522.67 659.333L1522.33 658.667M234 659L235 660L234 659M236 659L237 660L236 659z"/>
<path style="fill:#6dc03e; stroke:none;" d="M357.667 659.333L358.333 659.667L357.667 659.333z"/>
<path style="fill:#34883c; stroke:none;" d="M1143 659L1144 660L1143 659M1145 659L1145 660L1148 660L1145 659M1609 659L1608 661L1609 659M1611 659L1612 660L1611 659M1788 659L1789 660L1788 659M239 660L240 661L239 660z"/>
<path style="fill:#6dc03e; stroke:none;" d="M354.667 660.333L355.333 660.667L354.667 660.333M582 660L585 665L582 660z"/>
<path style="fill:#34883c; stroke:none;" d="M1298 660L1299 661L1298 660z"/>
<path style="fill:#6dc03e; stroke:none;" d="M1468 660L1469 661L1468 660M1471.33 660.667L1471.67 661.333L1471.33 660.667z"/>
<path style="fill:#34883c; stroke:none;" d="M1595.33 660.667L1595.67 661.333L1595.33 660.667M1635 661L1635 662L1638 663L1639 661L1635 661z"/>
<path style="fill:#6dc03e; stroke:none;" d="M352.667 661.333L353.333 661.667L352.667 661.333M886 661L886 664L887 664L886 661z"/>
<path style="fill:#34883c; stroke:none;" d="M1069 661L1069 664L1070 664L1069 661M1115.33 661.667L1115.67 662.333L1115.33 661.667M1142 661L1143 662L1142 661z"/>
<path style="fill:#6dc03e; stroke:none;" d="M1193 661L1190 670L1191 671C1194.89 668.472 1195.86 664.792 1193 661z"/>
<path style="fill:#34883c; stroke:none;" d="M1523 661L1524 662L1523 661M1537 661L1538 662L1537 661M237 662L238 663L237 662z"/>
<path style="fill:#6dc03e; stroke:none;" d="M927 662L926 664L928 664L927 662z"/>
<path style="fill:#34883c; stroke:none;" d="M1151 662L1152 663L1151 662z"/>
<path style="fill:#6dc03e; stroke:none;" d="M1321 662L1321 676L1322 676L1323 662L1321 662z"/>
<path style="fill:#34883c; stroke:none;" d="M1911 662L1910 665L1911 662M278 663L279 664L278 663z"/>
<path style="fill:#6dc03e; stroke:none;" d="M576 663L576 664L579 664L576 663M727 663L728 664L727 663z"/>
<path style="fill:#34883c; stroke:none;" d="M1117 663L1118 664L1117 663M1143 663L1144 664L1143 663M1297 663L1298 664L1297 663z"/>
<path style="fill:#6dc03e; stroke:none;" d="M1467.33 663.667L1467.67 664.333L1467.33 663.667M1472.33 663.667L1472.67 664.333L1472.33 663.667z"/>
<path style="fill:#34883c; stroke:none;" d="M1593 663L1594 664L1593 663M1639.33 663.667L1639.67 664.333L1639.33 663.667M1848 663L1849 664L1848 663M1899 663L1900 664L1899 663z"/>
<path style="fill:#6dc03e; stroke:none;" d="M865.667 664.333L866.333 664.667L865.667 664.333M887.333 664.667L887.667 665.333L887.333 664.667M890.333 664.667L890.667 665.333L890.333 664.667M928 664L932 671L931 668L933 669L933 668L928 664z"/>
<path style="fill:#34883c; stroke:none;" d="M994 664L995 665L994 664z"/>
<path style="fill:#6dc03e; stroke:none;" d="M1086 664L1086 667L1087 667L1086 664z"/>
<path style="fill:#34883c; stroke:none;" d="M1168 664L1169 665L1168 664z"/>
<path style="fill:#6dc03e; stroke:none;" d="M1322 676C1325.27 690.132 1334.49 698.923 1343 710L1344 710L1343 698L1344 698L1351 712L1352 712L1357 706C1355.8 711.043 1355.05 715.701 1361 717L1357 705C1357.98 698.39 1353.19 686.888 1350 681C1358.74 678.429 1368.5 671.189 1374 664C1355.89 669.732 1342.14 681.661 1322 676z"/>
<path style="fill:#34883c; stroke:none;" d="M1539 664L1540 665L1539 664M1908 664L1909 665L1908 664z"/>
<path style="fill:#6dc03e; stroke:none;" d="M867 665L867 666L870 666L867 665M903.333 665.667L903.667 666.333L903.333 665.667M870.667 666.333L871.333 666.667L870.667 666.333M891.333 666.667L891.667 667.333L891.333 666.667M937 673L937 674L942 675L942 676L940 675L940 676L942 680L943 680L952 666L937 673z"/>
<path style="fill:#34883c; stroke:none;" d="M977 666L978 667L977 666z"/>
<path style="fill:#6dc03e; stroke:none;" d="M1473 666L1474 667L1473 666z"/>
<path style="fill:#34883c; stroke:none;" d="M1578 666L1579 667L1578 666M1909.33 666.667L1909.67 667.333L1909.33 666.667z"/>
<path style="fill:#6dc03e; stroke:none;" d="M873.667 667.333L874.333 667.667L873.667 667.333M888 667L889 672L890 672L888 667M904 667L904 670L905 670L904 667M1087 667L1087 670L1088 670L1087 667M1319 667L1319 671L1320 671L1319 667M1466.33 667.667L1466.67 668.333L1466.33 667.667z"/>
<path style="fill:#34883c; stroke:none;" d="M1591 667L1592 668L1591 667M1617 667L1618 668L1617 667M1620 667L1621 668L1620 667z"/>
<path style="fill:#6dc03e; stroke:none;" d="M875 668L875 669L878 669L875 668M892.333 668.667L892.667 669.333L892.333 668.667z"/>
<path style="fill:#34883c; stroke:none;" d="M1151 668L1152 669L1151 668M1367 668L1368 669L1367 668z"/>
<path style="fill:#6dc03e; stroke:none;" d="M1474.33 668.667L1474.67 669.333L1474.33 668.667z"/>
<path style="fill:#34883c; stroke:none;" d="M1542 668L1543 669L1542 668z"/>
<path style="fill:#6dc03e; stroke:none;" d="M878 669L878 670L881 670L878 669M898 669L898 677L899 677L898 669M933 669L936 672L933 669M958 669L958 672L959 672L958 669z"/>
<path style="fill:#34883c; stroke:none;" d="M972 669L974 671L974 669L972 669M1365 669L1364 671L1365 669M1576 669L1577 670L1576 669M1579.33 669.667L1579.67 670.333L1579.33 669.667z"/>
<path style="fill:#6dc03e; stroke:none;" d="M881.667 670.333L882.333 670.667L881.667 670.333M893 670L894 671L893 670M905.333 670.667L905.667 671.333L905.333 670.667M1006.33 670.667L1006.67 671.333L1006.33 670.667M1088 670L1089 675L1090 675L1088 670z"/>
<path style="fill:#34883c; stroke:none;" d="M1308 670L1309 671L1308 670M1541 670L1542 671L1541 670M1590 670L1591 671L1590 670M1616 670L1618 672L1616 670z"/>
<path style="fill:#6dc03e; stroke:none;" d="M883 671L883 672L886 672L883 671M932.333 671.667L932.667 672.333L932.333 671.667M1189 671L1190 672L1189 671M1465.33 671.667L1465.67 672.333L1465.33 671.667M1475 671L1476 672L1475 671z"/>
<path style="fill:#34883c; stroke:none;" d="M1543 671L1544 672L1543 671M1545 671L1546 672L1545 671M1574.33 671.667L1574.67 672.333L1574.33 671.667M1588 671L1589 672L1588 671z"/>
<path style="fill:#6dc03e; stroke:none;" d="M886 672L886 673L891 672L886 672M894 672L895 673L894 672M906 672L908 675L906 672M936 672L937 673L936 672z"/>
<path style="fill:#34883c; stroke:none;" d="M942 672L942 673L945 673L945 672L942 672z"/>
<path style="fill:#6dc03e; stroke:none;" d="M959 672L959 675L960 675L959 672M1007.33 672.667L1007.67 673.333L1007.33 672.667M1011 672L1012 673L1011 672z"/>
<path style="fill:#34883c; stroke:none;" d="M1125 672L1126 673L1125 672M1162 672L1163 673L1162 672M1361 672L1360 674L1361 672M1539 672L1540 673L1539 672M1610 672L1611 673L1610 672M238 673L239 674L238 673M251 673L252 674L251 673M258 673L258 674L261 674L258 673M267.667 673.333L268.333 673.667L267.667 673.333z"/>
<path style="fill:#6dc03e; stroke:none;" d="M895.333 673.667L895.667 674.333L895.333 673.667M933.333 673.667L933.667 674.333L933.333 673.667M1476 673L1477 674L1476 673z"/>
<path style="fill:#34883c; stroke:none;" d="M1547 673L1549 675L1547 673M1587 673L1586 675L1587 673z"/>
<path style="fill:#6dc03e; stroke:none;" d="M1901 673C1898.2 683.236 1891.19 691.252 1894 702L1902 696L1899 705L1905 705C1907.28 697.079 1904.57 680.427 1901 673z"/>
<path style="fill:#34883c; stroke:none;" d="M234.667 674.333L235.333 674.667L234.667 674.333M238 675L238 676L242 675L238 675M263 674L264 675L263 674M966 674L967 675L966 674z"/>
<path style="fill:#6dc03e; stroke:none;" d="M1008 674L1010 677L1008 674M1105 674L1106 675L1105 674z"/>
<path style="fill:#34883c; stroke:none;" d="M1313 674L1314 675L1313 674M1353 676L1356 675L1353 676M1397 674L1398 675L1397 674M1526 674L1527 675L1526 674M1572 674L1573 675L1572 674z"/>
<path style="fill:#9be26c; stroke:none;" d="M228 694L237 695L236 684L237 684L241 692L242 692L242 689C249.237 694.558 251.835 688.017 252 681C257.542 686.055 262.684 688.576 270 690C275.285 679.002 265.064 676.581 256 675.3C242.756 673.429 228.347 679.231 228 694z"/>
<path style="fill:#34883c; stroke:none;" d="M266.667 675.333L267.333 675.667L266.667 675.333z"/>
<path style="fill:#6dc03e; stroke:none;" d="M896.333 675.667L896.667 676.333L896.333 675.667M908.333 675.667L908.667 676.333L908.333 675.667M934 675L935 676L934 675z"/>
<path style="fill:#34883c; stroke:none;" d="M1315 675L1316 676L1315 675M1357 675L1356 677L1357 675M1395 675L1397 677L1395 675M1446 675L1447 676L1446 675z"/>
<path style="fill:#6dc03e; stroke:none;" d="M1477 675L1478 676L1477 675z"/>
<path style="fill:#34883c; stroke:none;" d="M235 676L236 677L235 676M270 676L271 677L270 676z"/>
<path style="fill:#6dc03e; stroke:none;" d="M913 682L919 686L924 693L923 683L925 683C926.886 690.85 932.232 697.417 940 700L934 676C926.88 678.341 920.712 685.234 913 682z"/>
<path style="fill:#34883c; stroke:none;" d="M1111 676L1112 677L1111 676M1393 676L1394 677L1393 676z"/>
<path style="fill:#6dc03e; stroke:none;" d="M1464 676L1463 686L1464 686L1464 676z"/>
<path style="fill:#34883c; stroke:none;" d="M1523 676L1524 677L1523 676M1546 676L1547 677L1546 676M1550 676L1551 677L1550 676z"/>
<path style="fill:#6dc03e; stroke:none;" d="M897 677L899 682L900 682L897 677M909 677L910 678L909 677z"/>
<path style="fill:#34883c; stroke:none;" d="M966 677L967 678L966 677z"/>
<path style="fill:#6dc03e; stroke:none;" d="M1010 677L1012 680L1010 677z"/>
<path style="fill:#34883c; stroke:none;" d="M1098 677L1099 678L1098 677M1160.33 677.667L1160.67 678.333L1160.33 677.667M1353.67 677.333L1354.33 677.667L1353.67 677.333z"/>
<path style="fill:#6dc03e; stroke:none;" d="M1478 677L1479 678L1478 677z"/>
<path style="fill:#34883c; stroke:none;" d="M1552 677L1553 678L1552 677M1581.67 677.333L1582.33 677.667L1581.67 677.333M271 678L272 679L271 678z"/>
<path style="fill:#6dc03e; stroke:none;" d="M910 678L912 681L910 678z"/>
<path style="fill:#34883c; stroke:none;" d="M1110.67 678.333L1111.33 678.667L1110.67 678.333M1315 678L1316 679L1315 678M1390 678L1391 679L1390 678M1901.33 678.667L1901.67 679.333L1901.33 678.667M931 679L932 680L931 679M989 679L990 680L989 679M1120 679L1121 680L1120 679M1122 679L1123 680L1122 679M1393 679L1391 681L1391 682L1393 679M1445 679L1446 680L1445 679z"/>
<path style="fill:#6dc03e; stroke:none;" d="M1479 679L1480 680L1479 679z"/>
<path style="fill:#34883c; stroke:none;" d="M1517 679L1518 680L1517 679M1603 679L1604 680L1603 679M1744 679L1746 681L1744 679z"/>
<path style="fill:#6dc03e; stroke:none;" d="M943 680L944 681L943 680z"/>
<path style="fill:#34883c; stroke:none;" d="M955 680L956 681L955 680M966 680L967 681L966 680M987 680L988 681L987 680z"/>
<path style="fill:#6dc03e; stroke:none;" d="M1012 680L1014 683L1012 680z"/>
<path style="fill:#34883c; stroke:none;" d="M1344 680L1345 681L1344 680M1346 680L1347 681L1346 680M1348 680L1349 681L1348 680M1416 680L1417 681L1416 680M1570.33 680.667L1570.67 681.333L1570.33 680.667M1573 680L1574 681L1573 680M1782 680L1783 681L1782 680M1784 680L1785 681L1784 680z"/>
<path style="fill:#6dc03e; stroke:none;" d="M252 681L252 686L253 686L252 681M912 681L913 682L912 681M944 681L945 682L944 681z"/>
<path style="fill:#34883c; stroke:none;" d="M979.333 681.667L979.667 682.333L979.333 681.667M1068 681L1070 684L1068 681z"/>
<path style="fill:#6dc03e; stroke:none;" d="M1480 681L1481 682L1480 681M1374 682L1375 683L1374 682z"/>
<path style="fill:#34883c; stroke:none;" d="M1384 682L1385 683L1384 682M1580 682L1581 683L1580 682z"/>
<path style="fill:#6dc03e; stroke:none;" d="M254 683L255 684L254 683z"/>
<path style="fill:#34883c; stroke:none;" d="M949.667 683.333L950.333 683.667L949.667 683.333z"/>
<path style="fill:#6dc03e; stroke:none;" d="M1014 683L1016 686L1014 683z"/>
<path style="fill:#34883c; stroke:none;" d="M1097 683L1098 684L1097 683z"/>
<path style="fill:#9be26c; stroke:none;" d="M1343 686L1351 687C1348.83 683.497 1345.74 682.418 1343 686z"/>
<path style="fill:#34883c; stroke:none;" d="M1389 683L1390 684L1389 683z"/>
<path style="fill:#6dc03e; stroke:none;" d="M1481 683L1482 684L1481 683M236 684L236 689L237 689L236 684M255 684L256 685L255 684z"/>
<path style="fill:#34883c; stroke:none;" d="M977 684L978 685L977 684z"/>
<path style="fill:#6dc03e; stroke:none;" d="M256.667 685.333L257.333 685.667L256.667 685.333z"/>
<path style="fill:#34883c; stroke:none;" d="M984.333 685.667L984.667 686.333L984.333 685.667M990 685L991 686L990 685M1063 685L1064 686L1063 685M1070 685L1071 686L1070 685M1103 685L1104 686L1103 685M1383 685L1384 686L1383 685z"/>
<path style="fill:#6dc03e; stroke:none;" d="M1482 685L1483 686L1482 685z"/>
<path style="fill:#34883c; stroke:none;" d="M1782.33 685.667L1782.67 686.333L1782.33 685.667M1788 685L1789 686L1788 685z"/>
<path style="fill:#6dc03e; stroke:none;" d="M258 686L259 687L258 686z"/>
<path style="fill:#34883c; stroke:none;" d="M1096 686L1097 687L1096 686M1378 686L1379 687L1378 686M1387 686L1388 687L1387 686M1919.33 686.667L1919.67 687.333L1919.33 686.667z"/>
<path style="fill:#6dc03e; stroke:none;" d="M238.333 687.667L238.667 688.333L238.333 687.667M251.333 687.667L251.667 688.333L251.333 687.667M259.667 687.333L260.333 687.667L259.667 687.333z"/>
<path style="fill:#34883c; stroke:none;" d="M955 687L956 688L955 687M986 687L987 688L986 687M1062 687L1063 688L1062 687M1384 687L1385 688L1384 687M1396 687L1394 690L1396 687M1414 687L1415 688L1414 687M1451 687L1452 688L1451 687z"/>
<path style="fill:#6dc03e; stroke:none;" d="M1483 687L1484 688L1483 687z"/>
<path style="fill:#34883c; stroke:none;" d="M1529 687L1530 688L1529 687M1785 687L1786 688L1785 687z"/>
<path style="fill:#6dc03e; stroke:none;" d="M261.667 688.333L262.333 688.667L261.667 688.333z"/>
<path style="fill:#34883c; stroke:none;" d="M977 688L978 689L977 688M1101 688L1102 689L1101 688M1360 688L1361 689L1360 688M1364 688L1366 690L1364 688M1489 688L1490 689L1489 688M1518.33 688.667L1518.67 689.333L1518.33 688.667M1540 688L1541 689L1540 688M1798 688L1799 689L1798 688M1916 688L1917 689L1916 688M1918 688L1919 689L1918 688z"/>
<path style="fill:#6dc03e; stroke:none;" d="M239 689L240 690L239 689M242 689L242 694L242 689M250.333 689.667L250.667 690.333L250.333 689.667M264 689L264 690L268 690L264 689z"/>
<path style="fill:#34883c; stroke:none;" d="M1362 689L1364 691L1362 689M1382 689L1381 691L1382 689M1385 689L1386 690L1385 689z"/>
<path style="fill:#6dc03e; stroke:none;" d="M1484 689L1485 690L1484 689z"/>
<path style="fill:#34883c; stroke:none;" d="M1726 689L1727 690L1726 689z"/>
<path style="fill:#6dc03e; stroke:none;" d="M237 690L237 695L233 695L233 696L238 696L237 690M240.333 690.667L240.667 691.333L240.333 690.667z"/>
<path style="fill:#34883c; stroke:none;" d="M1070 690L1071 691L1070 690M1372 690L1373 691L1372 690z"/>
<path style="fill:#6dc03e; stroke:none;" d="M1462 690L1462 695L1463 695L1462 690z"/>
<path style="fill:#34883c; stroke:none;" d="M1528 690L1529 691L1528 690M1541 690L1542 691L1541 690M1568 690L1569 691L1568 690M1756 690L1757 691L1756 690M1797.33 690.667L1797.67 691.333L1797.33 690.667M1917.33 690.667L1917.67 691.333L1917.33 690.667z"/>
<path style="fill:#6dc03e; stroke:none;" d="M244 691L245 692L244 691M249 691L248 693L250 693L249 691z"/>
<path style="fill:#34883c; stroke:none;" d="M1370 691L1371 692L1370 691z"/>
<path style="fill:#6dc03e; stroke:none;" d="M1485 691L1486 692L1485 691z"/>
<path style="fill:#34883c; stroke:none;" d="M1488.33 691.667L1488.67 692.333L1488.33 691.667z"/>
<path style="fill:#6dc03e; stroke:none;" d="M245.667 692.333L246.333 692.667L245.667 692.333M1074 692L1065 714C1075.07 716.286 1078.5 698.876 1074 692z"/>
<path style="fill:#34883c; stroke:none;" d="M1383 692L1384 693L1383 692M1514 692L1515 693L1514 692M1569 692L1569 695L1570 695L1569 692z"/>
<path style="fill:#6dc03e; stroke:none;" d="M247 693L248 694L247 693z"/>
<path style="fill:#34883c; stroke:none;" d="M978 693L979 694L978 693M1065 693L1066 694L1065 693M1381 693L1380 695L1382 695L1381 693M1491 693L1492 694L1491 693M1386 694L1387 695L1386 694M1389 694L1390 695L1389 694M1537 694L1538 695L1537 694M1453 695L1454 696L1453 695M1493.33 695.667L1493.67 696.333L1493.33 695.667M1530 695L1531 696L1530 695M1535 695L1536 696L1535 695M1539 695L1540 696L1539 695M1777 695L1778 696L1777 695M1050 696L1051 697L1050 696M1064 696L1065 697L1064 696M1417 696L1418 697L1417 696M1446 696L1447 697L1446 696M1451 696L1452 697L1451 696M1787 696L1788 697L1787 696M1895 696L1896 697L1895 696M1052 698L1053 699L1052 698M1062.33 698.667L1062.67 699.333L1062.33 698.667M1454 698L1455 699L1454 698M1494.33 698.667L1494.67 699.333L1494.33 698.667M1903.33 698.667L1903.67 699.333L1903.33 698.667M1050 699L1051 700L1050 699z"/>
<path style="fill:#6dc03e; stroke:none;" d="M1461 699L1461 705L1462 705L1461 699z"/>
<path style="fill:#34883c; stroke:none;" d="M1053 700L1054 701L1053 700M1799 700L1800 701L1799 700M1497 701L1501 705L1497 701z"/>
<path style="fill:#6dc03e; stroke:none;" d="M1888 701L1885 707C1888.11 706.337 1889.17 703.852 1888 701z"/>
<path style="fill:#34883c; stroke:none;" d="M1051.33 702.667L1051.67 703.333L1051.33 702.667M1055 702L1056 703L1055 702M1398 702L1399 703L1398 702M1457 703L1456 705L1457 703M1036 704L1037 705L1036 704M1054 704L1055 705L1054 704M1057 704L1058 705L1057 704M1070 704L1071 705L1070 704M1354 704L1355 705L1354 704M1413 704L1414 705L1413 704M1514 704L1515 705L1514 704M1807 704L1808 705L1807 704M1824 704L1825 705L1824 704M1038.33 706.667L1038.67 707.333L1038.33 706.667M1052 706L1053 707L1052 706M1059 706L1060 707L1059 706M1458 706L1459 707L1458 706M1055 707L1056 708L1055 707M1069 707L1070 708L1069 707M1396 707L1397 708L1396 707M1512 707L1513 708L1512 707M1057 708L1058 709L1057 708M1430 708L1431 709L1430 708M1496 708L1500 711L1496 708M1501 708L1502 709L1501 708M1504 708L1505 709L1504 708M1397 709L1398 710L1397 709M1513 709L1514 710L1513 709M1429 710L1429 714L1430 714L1429 710M1504 710L1505 711L1504 710M1398 711L1399 712L1398 711M1438 711L1439 712L1438 711M1456 711L1457 712L1456 711z"/>
<path style="fill:#6dc03e; stroke:none;" d="M1535 711L1536 712L1535 711M978 712L979 713L978 712z"/>
<path style="fill:#34883c; stroke:none;" d="M1357 712L1358 713L1357 712M1385 712L1384 714L1385 712M1388 712L1389 713L1388 712M1399 713L1400 714L1399 713z"/>
<path style="fill:#6dc03e; stroke:none;" d="M978 714L980 717L980 714L978 714z"/>
<path style="fill:#34883c; stroke:none;" d="M1387 714L1388 715L1387 714M1426 714L1427 715L1426 714M1431 714L1430 718L1431 718L1431 714M1384 715L1385 716L1384 715M1435 715L1435 718L1436 718L1435 715M1501.33 715.667L1501.67 716.333L1501.33 715.667M1524 715L1525 716L1524 715M1411.33 716.667L1411.67 717.333L1411.33 716.667M1414.33 717.667L1414.67 718.333L1414.33 717.667M1427 717L1428 718L1427 717M1437 717L1438 718L1437 717M1406 719L1407 720L1406 719M1410 719L1411 720L1410 719M1412 719L1413 720L1412 719M1432 719L1433 720L1432 719M1512 720L1513 721L1512 720M1387 725L1388 726L1387 725M1390.33 725.667L1390.67 726.333L1390.33 725.667M1415 727L1416 728L1415 727M1446 727L1445 729L1446 727z"/>
<path style="fill:#6dc03e; stroke:none;" d="M1432 729L1433 730L1432 729z"/>
<path style="fill:#34883c; stroke:none;" d="M1427 732L1428 733L1427 732z"/>
</svg>
