<svg xmlns="http://www.w3.org/2000/svg" width="1920" height="768" xmlns:v="https://vecta.io/nano"><style><![CDATA[.B{fill:#34883c}.C{fill:#6dc03e}.D{fill:#a7f1ef}.E{fill:#9be26c}.F{fill:#fbfefd}]]></style><path d="M0 0v525l19 2c.922-12.234 16.439-18.146 24-8h2c6.673-8.279 21.047-8.364 26 2 6.528-2.066 12.187-5.961 19-7.486 16.045-3.592 36.303 3.495 39 21.486 8.326-2.639 12.299 1.095 20 .948 16.031-.305 34.35-8.98 45 9.052 11.696-2.413 17.958 2.12 29 2.945 24.249 1.814 48.712 2.952 73 4.016 86.083 3.769 172.029 10.236 258 16.128 24.322 1.668 48.726 3.732 73 6.081 13.145 1.272 27.835 4.639 41 3.645 32.289-2.438 64.612-12.18 97-15.649 26.193-2.806 52.685-5.507 79-6.151 17.727-.435 36.416 1.986 54-.304 24.535-3.197 49.906-12.32 74-18.236 39.95-9.81 80.58-17.291 121-24.864 137.6-25.782 277.71-44.292 417-57.781 35.66-3.453 71.26-8.279 107-10.74 25.48-1.755 52.94-1.376 78-6.264 5.16-1.006 9.73-3.766 15-4.526 4.11-.592 9.81.934 13.58-.903 4.48-2.185 6.67-9.993 11.42-13.149 15.83-10.51 34.95-5.921 51 .752 3.21-36.548 51.13-29.345 65-5 11.93-4.233 18.76-2.221 30 3 2.49-19.245 19.68-33.158 39-34V0H0z" class="D"/><path d="M1618 110h-1c-2.19-13.795-19.8-18.87-29.96-9.786-7.42 6.635-7.2 17.73-5.04 26.786-13.03-1.924-24.94-10.781-38-11.811-5.58-.44-12.94 3.131-11.52 9.811 1.62 7.665 11.96 11.309 18.52 13.279 19.28 5.791 42.04 2.721 62 2.721h198c16.38 0 33.76 1.634 50-.576 4.88-.664 12.97-.335 16.21-4.818 2.97-4.104-1.75-7.685-5.21-9.044-7.95-3.119-17.75-3.527-26-1.562 6.39-26.857-37.07-12.781-48-5-.02-29.558-41.03-13.499-57-6 7.82-32.83-50.36-24.378-61-6-.13-16.848 14.05-29.805 5.18-48-9.15-18.778-29.9-18.576-44.18-5.826-15.86 14.163-21.38 35.317-23 55.826m-1356-9c-7.712-2.04-13.151-2.815-20 2 5.618-19.993-12.019-38.408-32-26.005-9.318 5.783-12.914 16.567-13 27.005-10.647-3.88-13.593 2.82-23 3.616-13.16 1.112-24.723-4.765-33 10.384 12.196 3.605 28.289 1 41 1l91-1h30c3.929 0 8.852.91 11.031-3.148 6.986-13.011 7.737-42.632-10.031-47.294-20.398-5.352-37.195 16.015-42 33.442m564 43c-9.543-1.285-18.659-3.466-26.956 3.394-2.853 2.359-7.702 9.194-3.441 12.578C798.692 162.425 806.273 161 810 161h37l144-1c-5.703-19.752-29.69-19.947-43-8-4.098-16.211-18.417-15.88-30-8-.817-9.909-7.253-14.88-17-12 2.811-10.301 5.868-20.17 5.996-31 .366-30.897-23.624-41.663-49.996-28.019-24.514 12.683-42.743 43.726-31 71.019M84 108.44c-19.376 3.09-5.563 16.659 8 14.231 4.931-.883 12.776-6.866 6.682-11.817-3.701-3.006-10.236-3.123-14.682-2.414M1333 250c-7.71-5.692-19.54-18.558-29.47-8.606-3.24 3.247-3.44 8.941-6.96 11.668-6.21 4.812-26.52 11.137-15.56 24.335 2.44 2.939 9.6 1.603 12.99 1.603h38 124 34c4.04 0 10.18 1.115 13.79-1.028 10.71-6.358.25-21.136-7.79-23.747-12.23-3.973-22.27 3.284-33 7.775-5.43-14.012-19.96-14.274-31-7-.06-20.898-21.06-28.915-37-17 2.71-13.123 6.2-47.007-14-49.566-7.66-.97-15.82 5.853-21 10.656-14.12 13.084-26.13 31.043-27 50.91m-929 54c-7.815-8.921-16.522-15.065-29-12.66-7.987 1.54-19.184 11.667-14.678 20.617C364.103 319.467 374.898 319 382 319h60 254c-6.311-12.352-26.191-12.666-37-7 1.227-3.298 2.428-6.416 2.235-10-1.348-25.143-31.844-11.675-43.235-3.36-3.353 2.448-6.992 6.736-11 7.962-8.229 2.518-14.564-6.071-23-3.602.917-4.012 2.261-7.826 1.695-12-4.734-34.946-51.497-13.08-60.695 7h-1c1.913-10.466-4.112-14.353-14-12 3.937-9.468 8.948-18.753 10.561-29 5.783-36.739-27.351-47.729-56.561-35.575-35.183 14.639-60 43.821-60 82.575z" class="F"/><path d="M523 298l1 1-1-1z" class="D"/><path d="M329 303.533c-16.105 3.916-9.449 21.798 6 17.953 5.322-1.324 19.416-6.379 15.588-14.258-2.85-5.867-16.393-4.958-21.588-3.695M963 346c-6.165-6.034-23.728-17.761-29.258-3.96-2.354 5.876 1.86 11.802.258 17.96h145 34c4.11 0 10.39 1.114 12.82-3.148 2.94-5.165-2.17-9.02-6.82-9.663-9.94-1.374-18.09 3.574-27 6.811-3.29-6.884-8.95-8.289-16-7 2.42-24.811-32.72-11.336-43-5 7.32-13.965-.98-30.31-18-26.61-10.07 2.19-17.639 12.445-21 21.61-2.568-8.119-1.387-17.801-9.043-23.486C965.028 298.715 959.08 333.635 963 346z" class="F"/><path d="M1914 384v1h3l-3-1z" class="E"/><path d="M1882 419c-5.79-3.21-11.16-6.564-18-6.895-3.88-.188-9.28 2.685-12.82.916-6.12-3.06-9.48-10.85-16.18-14.211-21.96-11.017-43.4-1.036-49 22.19-15.24-10.757-58.64-13.117-60 13-9.93-.426-17.49-.664-27 3v1l66-3.961L1920 430v-46c-19.47 2.515-37.99 13.722-38 35z" class="C"/><path d="M1910.67 385.333l.66.334-.66-.334M1908 386l1 1-1-1m-3 1l1 1-1-1m-2.33 1.333l.66.334-.66-.334M1901 389l1 1-1-1m-2 1l1 1-1-1m-2 1l1 1-1-1m-3 2l1 1-1-1m-85 1v1h4l-4-1m9 0v1h5l-5-1m75 0l1 1-1-1m-87.33 1.333l.66.334-.66-.334M1826 395l1 1-1-1m-23 1l1 1-1-1m26.67.333l.66.334-.66-.334M1890 396l1 1-1-1m-89 1l1 1-1-1m31 0l1 1-1-1m57 0l1 1-1-1m-90 1l1 1-1-1m35 0l1 1-1-1m-36 1l1 1-1-1m38 0l1 1-1-1m-40 1l1 1-1-1m42 0l1 1-1-1m-43 1l1 1-1-1m44 0l1 1-1-1m47 0l1 1-1-1m-92 1l1 1-1-1m-1 1l1 1-1-1m49 0l1 1-1-1m43 0l1 1-1-1m-93 1l1 1-1-1m51 0l1 1-1-1m41 0l1 1-1-1m-93 1l1 1-1-1m53 0l1 1-1-1m-53.67 1.667l.34.666-.34-.666M1845 406l1 1-1-1m38 0l1 1-1-1m-94 2l1 1-1-1m58 1l1 1-1-1m35 0l1 1-1-1m-94 1l1 1-1-1m60 0l1 1-1-1m-61 2l1 1-1-1m62 0l1 1-1-1m7 0v1h3l-3-1m11.67.333l.66.334-.66-.334M1751 413v1h5l-5-1m10 0v1h5l-5-1m89 0l1 1-1-1m4 0l1 1-1-1m17 0l1 1-1-1m-124.33 1.333l.66.334-.66-.334m24 0l.66.334-.66-.334M1874 414l1 1-1-1m7 0l-1 5 1-5m-138.33 1.333l.66.334-.66-.334m32 0l.66.334-.66-.334M1786 415v5h1l-1-5m90 0l1 1-1-1m-136 1l1 1-1-1m37.67.333l.66.334-.66-.334M1877 416l1 1-1-1m-139.33 1.333l.66.334-.66-.334M1780 417l1 1-1-1m99 0l1 1-1-1m-144 1l1 1-1-1m47 0l1 1-1-1m-48 1l1 1-1-1m50 0l1 1-1-1m1 1l1 1-1-1m-54 1l1 1-1-1m-1 1l1 1-1-1m-1 1l1 1-1-1m-1 1l1 1-1-1m-1 2l1 1-1-1m-1 2l1 1-1-1M214 545v1l4 3-50-2.089L49 544c2.578 9.362 13.234 13.459 19 20 14.31-2.657 26.728 4.552 28 20 4.352-2.386 8.821-5.579 14-5.526 12.484.127 19.614 13.418 17 24.526 10.348-1.33 14.8.284 20 10h1c6.803-9.657 20.638-17.729 26-2 7.962-5.537 10.168-8.589 19-3 4.445-5.473 8.895-3.804 12 2 5.724-.598 7.932 2.706 11 7l4-4c-2.881 12.602-.834 30.753 6 42h1l2-7 6 9 5-31h1l1 14h2l1-6h2c4.022 12.704 15.538 20.116 28 23-8.83-27.616-7.098-59.264 11-83-.696 20.88-6.759 41.289 1 62l2-8 7.39 12.306L317 638l-3-20c4.842 5.493 3.871 13.915 8.228 19.566C333.259 651.877 338.714 626.232 340 620h1c.007 3.27-1.733 19.364 2.213 20.079 3.764.682 6.168-7.592 7.184-10.079 5.11-12.513 7.397-24.985 10.603-38h1c.011 17.091-.308 33.31-5 50h1l16-31-1 13h1l23-24c.086 10.2 5.168 21.353 13 28l3-4-1 7c6.079 3.405 10.99 3.652 17 0l-4-15 8 7h1l27.999-20.17L482 584l-22 31c11.402-1.371 18.924-7.783 28-14l-6 11 4-6 27-30-11 27 11-9 1 1c-5.903 7.958-5.092 14.848-3 24h1l9-16c-2.415 9.334-1.618 16.122 2 25 11.309-5.267 25.195-22.647 30-34h1l-8 28 9-8-1 11h1c8.009-17.203 7-36.509 7-55h1c5.509 21.293 6.234 42.847 18 62h1l2-29h1c2.45 11.72 8.827 23.68 20 29l-2-24h1c6.378 18.732 18.308 30.676 37 37l-2-9c9.08 7.674 30.345 15.757 42 8.397 8.592-5.427 12.703-15.728 20-22.397l-8 21c8.592-3.755 15.011-10.573 19-19h1l-6 19c19.997-1.746 50.667-16.718 60-35h1c-1.783 10.003-8.571 18.688-14 27 7.841-2.653 21.797-5.954 27.297-12.394 3.129-3.663 3.98-10.134 5.703-14.606h1v12 1l-3 5c16.753-3.23 25.488-19.488 37-30l-7 36 8-6c.399 6.101 1.105 9.836 6 14l13-24h1c-1.004 6.83-2.634 12.98-1.711 20 3.234 24.58 28.696 30.476 48.711 37l-7-20 15 25h1c-2.472-10.354-4.079-25.648 4-34-2.644 11.107-.289 22.478 5.866 32 1.811 2.803 4.425 7.523 8.149 7.898 5.225.527 12.454-5.681 16.985-7.898l-6-12 9 9 15-7c-2.421 3.097-8.722 7.824-8.654 11.941.104 6.364 10.506 2.316 12.051-1.166 2.378-5.361-.281-13.143-.397-18.775h1l4 17 21-13-1 26h1c8.471-12.609 12.733-27.581 17.116-42 2.304-7.585 3.844-17.478 9.884-23 0 13.456-6.31 33.507-1.97 46 1.55 4.458 9.39 20.977 13.97 14 2.7 7.929 6.42 18.694 14 23l-1-9h1c3.96 7.758 9.94 11.355 18 14l-4-20 11 12 4-21h1l2 5h1c0-22.397 4-41.374 9-63h1l4 31h1v-4h1c2.97 10.475 3.82 23.06 14 29l-1-6 13 3-2-35h2l5 15h1v-8c5.18 4.954 9.91 8.512 17 10l-2-24 9 24 8-1c-2.23-8.162-5.67-15.472-6.71-24-2.54-20.648 4.25-38.897 10.71-58h1c0 22.284 2.34 43.591 12 64 9.21-7.11 8.54-17.709 11-28h1c1 12.292 4.62 35.098 19 38l-3-35h1l8 21h1v-3h1l4 20 17-33h1l-6 26h1c10.93-15.391 17.83-35.922 23-54h1l-9 55 17-24-1 11 13-9c-3.48 5.688-13.04 17.807-8.97 24.852 4.06 7.02 17.55.769 22.97-1.277 20.03-7.561 38.36-19.236 57-29.575-9.24 9.211-19.09 17.671-27.18 28-2.53 3.224-6.89 8.55-5.86 13 1.51 6.605 10.52 12.046 16.04 15l5-13c-7.51 31.528 38.55 7.814 51 2l-24 17c5.9 9.287 15.57 5.441 24 2l-10 9v1l42-26-21 26 16-9c-5.34 5.858-11.74 15.032-7 23l10-13c-2.42 9.125-4.71 16.608 1 25h1c9.25-13.101 4.64-30.405 10-45h1l8 39h1l8-11 1 11h1c7.05-21.666 11.66-44.414 7-67h1c5.03 18.447 5.46 42.865 16 59h1c.72-16.801 3.8-33.024 9-49h1c1.16 13.311 9.98 24.946 15 37h1v-14c8.91 10.839 8.89 26.857 26 27l8-51h1l12 39c11.74-6.161 1.45-30.14 0-40h1c6.83 18.026 29.56 35.212 41.74 12 1.54-2.94 2.68-5.743 3.26-9h1v19c17.53-11.691 14.64-36.449 17-55h1c.05 6.56 1.43 12.789 3.52 19 1.54 4.577 3.61 8.857 6.08 13 2.25 3.775 5.8 11.093 10.49 12.184 5.71 1.326 22.59-8.535 26.4-12.713 8.07-8.87 3.94-27.71 20.51-29.768 3-.373 6.09.698 9 1.297-5.12-12.321-5.05-31.876 14-23 1.38-5.332 2.3-10.713 6.21-14.895 16.51-17.636 34.38 4.824 33.79 21.895 11.92-2.361 20.35 2.715 23 15h1c7.88-14.129 17.4-17.987 32-12-1.76-13.916-.23-31.88 17-35-1.37-7.982-5.58-15.647-4.7-24 2.69-25.404 24.27-22.671 39.7-11 3.9-6.613 8.64-7.979 16-8-4.87-8.546-11.62-15.771-12.7-26-1.55-14.74 12.65-21.484 24.7-17 0-17.511 9.09-37.297 30-35.471 9.62.839 16.69 6.354 25 10.471v-35c-246.76 0-494.1 29.62-738 67.275-64.64 9.979-129.12 21.963-193 36.149-30.255 6.72-61.371 18.297-92 22.287-17.584 2.29-36.273-.131-54 .304-23.302.571-46.79 2.833-70 5.154-23.79 2.379-47.45 5.982-71 10.081-11.342 1.974-23.51 6.128-35 6.49-16.353.515-33.712-3.014-50-4.57-33.923-3.242-68.013-5.753-102-8.081l-206-13c-30.612-2.096-65.665 1.932-95-7.089m1511-114l-5 2v1c2.5-.041 6.23.275 5-3m-17 2v1h4l-4-1m-3.33 1.333l.66.334-.66-.334m-3 1l.66.334-.66-.334m-2 1l.66.334-.66-.334z" class="E"/><path d="M1865 490c-11.64-5.842-24.85 1.355-24.92 15-.05 10.74 6.55 19.961 12.92 28-7.3.005-13 .532-16 8-10.2-10.717-31.39-16.084-37.9 2-4.14 11.513-.14 21.872 2.9 33-17.36 1.79-19.54 21.35-17 35-13.08-7.435-26.61-2.228-32 12h-1c-1.73-12.555-11.07-18.32-23-15 1.33-17.494-18.43-40.716-34.61-21.895-3.56 4.147-4.38 9.71-5.39 14.895-17.79-10.894-20.84 11.224-14 23-22.53-6.329-20.02 13.926-28.86 26.815-3.06 4.463-9.48 6.608-14.14 8.938-3.31 1.655-9.05 6.007-12.91 4.829-14.71-4.49-11.89-28.854-21.09-36.582l1-7h-1c-3.9 20.673-.24 39.435-17 55v-19h-1c-1.01 3.509-2.47 6.852-4.35 10-13.46 22.513-32.05 2.439-40.65-13h-1c1.02 11.691 11.33 31.021 0 40l-12-39h-1l-8 51c-17.67-.378-15.42-17.93-26-27l-1 15c7.72 7.271 10.38 19.246 16.4 27.867 2.07 2.96 7.87 4.731 10.57 1.391 4.41-5.446-.84-14.217 6.03-19.258l6 14v-10l1-1 8 3-14-13c10.12 1.307 25.77 11.8 35 9.988 6.11-1.198 14.7-3.601 14-10.988 4.69-3.454 7.42-13.341 8-19h1l4 20h1l22-31c-1.58 9.196-6.13 22.47-13 29v1c11.02-3.31 20.01-15.734 21-27h1l-4 19 23-5-6-20c13.49 8.912 22.59 19.895 40 14l-8-18c6.86 7.858 13.58 21.375 25 22v-16h1c1.36 5.745 3.54 12.163 9 15 .12-13.985 6.63-25.827 17-35-6.89 12.425-11 22.625-11 37h1l17-14c-4.33 6.13-5 11.673-5 19l19-8-12 15h9l6-8c.04 9.936 7.08 10.611 16 11l-1-11h1c5.94 13.765 20 23.315 35 24l-6-20 10 12 3-19c4.18 16.954 8.92 36.487 29.98 24.435 3.3-1.887 5.33-4.872 8.02-7.435l-5 11 7-1 2-6h1l1 4 16-10-8 14v1c16.4-2.825 30.59-15.737 42.3-26.666 4.76-4.444 10.72-10.035 12.97-16.334 2.15-6.009-.27-13.73-.27-20 11.68 12.09 9.59 36.819 19 51 4.74-16.043 1-38.233 1-55V529v-44c0-5.491 1.52-13.695-.6-18.826-5.94-14.358-33.15-14.009-43.36-6.246-9.87 7.505-11.04 18.613-11.04 30.072z" class="C"/><path d="M1642 494v1l5 2-5-3z" class="D"/><path d="M1642 495l-1 5-5 1 6 2v6h2c.71-3.337.83-4.942-2-7l4-3v5h6l-3-6h4v-2l-9 1 1-2h-3z" class="F"/><path d="M1649 495v1h4l-4-1m4.33 1.667l.34.666-.34-.666m-12 1l.34.666-.34-.666m4.67.333l1 1-1-1m3 0l3 4 1-3-4-1m-11.33 1.333l.66.334-.66-.334M1640 499l1 1-1-1z" class="D"/><path d="M1643 499l1 4h1l1-4h-3z" class="E"/><path d="M1636 500l1 1-1-1m11 0l1 1-1-1m-5 1l1 1-1-1m-6 1v1h3l-3-1m7 0l1 1-1-1m2 0v3h1l-1-3m7.33.667l.34.666-.34-.666M1641 503v3h1l-1-3m-279 3v1l5-2v4h1v-5l-6 2m285.67-1.667l.66.334-.66-.334M1651 504l1 1-1-1m-291 1l1 1-1-1z" class="D"/><path d="M1365 505l1 5-1 1-6 2 4-1 3 3v-5l4 1-4-3 1-3h-2m-6 1l5 2-5-2z" class="F"/><path d="M1640 506l1 1-1-1z" class="D"/><path d="M1362 508v2l1 1h2v-4l-3 1z" class="E"/><path d="M1644.33 507.667l.34.666-.34-.666M1359 508l2 3-2-3m10 0l1 3h1v-3h-2m272 0l3 2v-1l-3-1m-275 2l-2 5v1l6-4-4-2m-7 1l1 1-1-1z" class="D"/><path d="M96 512v1h5l-5-1z" class="E"/><path d="M1362 512l1 1-1-1z" class="D"/><path d="M30.667 513.333l.667.334-.667-.334z" class="E"/><path d="M20 527l-20-2v98c11.336-3.007 21.488-3.978 33-1l-5-10 16 8-6-18c7.971 6.109 12.59 15.661 20.464 22.035C69.039 632.594 94.468 641.644 108 643l-6-18 14 24h1c-1.296-10.252-3.688-24.747 4-33-4.956 20.818 9.212 32.714 20 48h1l-1-12h1c2.53 8.661 7.603 15.307 16 19-.114-13.786-5.966-25.51-13-37l9 6 11 16 2-1c4.147 13.101 18.475 33.095 32 37l-6-26h1c6.793 13.164 22.14 26.359 37 29v-1h-3c.71-13.656 14.414-20.344 27-18.696 9.516 1.246 19.05 3.495 15 14.696 5.73-1.541 7.446-5.565 9-11h1c1.683 4.905 7.901 11.106 11.566 3.941 2.568-5.021 2.392-12.41 3.434-17.941h1c.003 4.034-.732 10.149 2.525 13.208 9.533 8.953 27.964-4.757 25.475-16.208l12 6c-3.617-6.972-9.86-11.919-17-15v-1l31 10v-1l-3-1c3.327-9.539 23.03-27.562 29.963-9.914 2.402 6.117-7.354 6.881-10.963 6.914v1c6.499-.019 13.665-1.16 14-9 10.099-2.022 15.27-21.497 23-28l-12 29c8.838-4.402 15.214-11.966 19-21l-2 13 23-5-4-17h-1l3 11c-6.766 3-10.191 2.774-17 0l1-7-3 4c-6.627-7.984-12.773-17.343-13-28-8.063 3.77-19.191 15.993-23 24h-1l1-13c-7.514 4.922-13.131 22.575-16 31h-1c5.977-15.932 5.046-33.432 5-50h-1l-10.603 37-7.184 10.369L341 620h-1c-1.625 5.78-7.433 31.869-17.772 16.772-3.781-5.52-2.69-14.613-8.228-18.772l3 20-19.787 2.096L289 628l-2 8c-3.815-13.577-4.874-27.94-3.91-42 .456-6.663 3.11-13.424 2.91-20-19.51 18.025-20.85 60.107-11 83-12.607-4.109-22.241-10.683-28-23h-2l-1 6h-2l-1-14h-1c-4.53 10.22-5 20.007-5 31l-6-9c-2.957 1.92-2.883 3.696-2 7h-1c-5.809-13.101-8.053-28.036-6-42l-4 4c-2.494-4.908-5.129-8.342-11-7-2.198-6.273-8.497-8.655-12-2-7.599-6.484-12.517-3.331-19 3-3.248-16.052-21.002-8.716-26 2h-1c-3.769-10.275-10.035-11.926-20-10 5.995-20.328-16.053-30.17-31-19-.683-15.622-13.4-23.476-28-20l-19-20 119 2.961L218 549c-5.427-8.213-15.23-2.73-22.791-4.888-6.126-1.749-9.963-8.298-17.209-9.826-10.721-2.26-19.81 2.59-30 1.652-7.882-.727-11.104-4.361-19 .062-7.993-30.817-36.895-23.249-59-14-2.4-15.378-17.996-4.943-26-4.968-3.237-.011-5.78-3.073-9-3.544-7.593-1.112-15.584 6.14-15 13.512z" class="C"/><path d="M36.667 513.333l.667.334-.667-.334M50 513v1h3l-3-1m10.667.333l.667.334-.667-.334m29 0l.667.334-.667-.334M105 513v1h3l-3-1z" class="E"/><path d="M1360 513l1 1-1-1m3.33.667l.34.666-.34-.666M1759 513v1h5v-1h-5z" class="D"/><path d="M1764 513l-5 1-2 5h8l-5 1 1 3h1l5-4 2 2-5-8z" class="F"/><path d="M28 514l1 1-1-1m10.667.333l.667.334-.667-.334m10 0l.667.334-.667-.334m16 0l.667.334-.667-.334M86 514l1 1-1-1m24 0l1 1-1-1z" class="E"/><path d="M1765 514l1 1-1-1z" class="D"/><path d="M26 515l1 1-1-1m14 0l1 1-1-1m7 0l1 1-1-1m20 0l1 1-1-1m16 0l1 1-1-1m29.667.333l.666.334-.666-.334z" class="E"/><path d="M1764 515l1 1-1-1z" class="D"/><path d="M25 516l1 1-1-1m16 0l1 1-1-1m5 0l1 1-1-1m22 0l1 1-1-1m12.667.333l.667.334-.667-.334M115 516l1 1-1-1z" class="E"/><path d="M1758 516l1 1-1-1z" class="D"/><path d="M1760 517v1l4 1-1-3-3 1z" class="E"/><path d="M1765 516l4 2v-1l-4-1z" class="D"/><path d="M23 517l1 1-1-1m19 0l1 1-1-1m27 0l1 1-1-1m9 0l1 1-1-1m39 0l1 1-1-1z" class="E"/><path d="M1757 517l1 1-1-1z" class="D"/><path d="M22 518l1 1-1-1m48 0l2 4-2-4m6.667.333l.667.334-.667-.334M119 518l1 1-1-1z" class="E"/><path d="M1756 518l1 1-1-1m1 1v1l4-2-4 1m7-1l1 1-1-1m5 0v3h1l-1-3z" class="D"/><path d="M21 519l1 1-1-1m54 0l1 1-1-1m45 0l1 1-1-1z" class="E"/><path d="M1762 523l5-3-5 3z" class="D"/><path d="M20 520l1 1-1-1m53 0l1 1-1-1m-54 1v3h1l-1-3m103 0l1 1-1-1z" class="E"/><path d="M1760.33 521.667l.34.666-.34-.666z" class="D"/><path d="M123 522l1 1-1-1m1 1l1 1-1-1z" class="E"/><path d="M1453 527v1l10-4-10 3z" class="D"/><path d="M125 524l1 1-1-1z" class="E"/><path d="M1460 524l-8 4c.73 3.403 2.81 2.987 6 3l-2 5 10-2-1-5h5v-1h-7v-4h-3z" class="F"/><path d="M8 525v1h4l-4-1m11.333.667l.333.666-.333-.666z" class="E"/><path d="M1462 525l1 1-1-1z" class="D"/><path d="M16.667 526.333l.667.334-.667-.334M126 526l1 1-1-1z" class="E"/><path d="M1463 528l6-1-6 1m-3-1l1 1-1-1m9 0l1 1-1-1z" class="D"/><path d="M127.333 528.667l.334.666-.334-.666z" class="E"/><path d="M1451 528v3h1l-1-3z" class="D"/><path d="M1459 528l-1 3h5v-2l-4-1z" class="E"/><path d="M1462 528l1 1-1-1m8 0l1 1-1-1m-5 4h1l4-2c-2.61-1.498-4.35-1.013-5 2z" class="D"/><path d="M128 531v4h1l-1-4z" class="E"/><path d="M1453 531v1l5 1-5-2m-238 4h1l1-2 1 3 4-4h-5l-2 3z" class="D"/><path d="M1219 535l6 5-3-3 2-5-5 3z" class="F"/><path d="M1463 532l1 1-1-1m3 0l-6 1v1c2.34.583 7.47 1.901 6-2z" class="D"/><path d="M133 533l1 1-1-1m8.667.333l.666.334-.666-.334M160 533v1h3l-3-1m13 0v1h4l-4-1z" class="E"/><path d="M1216 533l-3 5v1l5 3h2l1-3h-4l-1-6z" class="F"/><path d="M130.667 534.333l.666.334-.666-.334M144 534l1 1-1-1m11.667.333l.666.334-.666-.334M179 534v1h3l-3-1z" class="E"/><path d="M1223 534l1 1-1-1m232.33.667l.34.666-.34-.666M1459 534l-1 2h2l-1-2z" class="D"/><path d="M129 535l1 1-1-1m16 0l1 1-1-1m6 0l1 1-1-1m31.667.333l.666.334-.666-.334z" class="E"/><path d="M1222 535v2h2l-2-2z" class="D"/><path d="M146 536l1 1-1-1m2 0l1 1-1-1m37 0l1 1-1-1z" class="E"/><path d="M1214.67 536.333l.66.334-.66-.334z" class="D"/><path d="M1217 536v3h4v-3h-4z" class="E"/><path d="M1456.67 536.333l.66.334-.66-.334z" class="D"/><path d="M187 537l1 1-1-1z" class="E"/><path d="M1213 537l1 1-1-1m11 0l1 1-1-1z" class="D"/><path d="M188 538l1 1-1-1z" class="E"/><path d="M1221 538v2h2l-2-2m4.33.667l.34.666-.34-.666z" class="D"/><path d="M190 539l1 1-1-1z" class="E"/><path d="M1214 539l1 1-1-1m2 0l1 1-1-1z" class="D"/><path d="M191 540l1 1-1-1z" class="E"/><path d="M1217.33 540.667l.34.666-.34-.666m3 0l.34.666-.34-.666z" class="D"/><path d="M192 542l1 1-1-1m1.333 1.667l.334.666-.334-.666M200 543v1h8l-8-1m-4 1l1 1-1-1m15.667.333l.666.334-.666-.334z" class="E"/><path d="M1576 546l-5 3v1l4 1 3-4v4h4l-1 3h1l1-3-5-5h-2z" class="D"/><path d="M1576 547l-1 4 4 3h2l1-3h-4v-4h-2m-5 3v1l2 1-2 3 5 3h1l1-4h-4v-4h-3z" class="F"/><path d="M1571 551v3h1l1-3h-2z" class="D"/><path d="M1574 551l4 3-4-3z" class="E"/><path d="M53 553l1 1-1-1z" class="B"/><path d="M1574 553l1 1-1-1m4 0v4h1l-1-4m-8 1l1 1-1-1m1 1l1 1-1-1m3 0l1 1-1-1z" class="D"/><path d="M57.333 557.667l.333.666-.333-.666z" class="B"/><path d="M1575 557l1 1-1-1m2 0l1 1-1-1z" class="D"/><path d="M23 558l1 1-1-1m5 0l1 1-1-1m-13 1l1 1-1-1m11 0l1 1-1-1m38 3l2 2-2-2m-2 2l1 1-1-1m-47 2l1 1-1-1m-5 1l1 1-1-1z" class="B"/><path d="M562 570c0 19.331-.764 36.538-7 55h-1l1-11-9 8c4.028-8.501 9.052-18.345 8-28h-1c-7.656 12.252-18.104 25.652-30 34-2.69-9.433-3.899-15.21-2-25-5.222 3.194-7.635 10.253-9 16h-1c-1.457-9.913-1.986-14.872 3-24l-1-1-11 9 11-27-27 30-4 6 6-11-28 14 22-31-14.326 12.76L434 623h-1l-8-7 1 3c12.601 6.568 22.697 17.457 38 11l-8-19c8.279 7.93 13.699 20.051 25 24l1-19h2c.078 6.362 2.125 13.666 8 17-2.662-13.829 7.389-26.526 18-34-7.737 10.65-10.375 22.156-12 35l20-13c-4.488 6.05-7.779 11.258-6 19l18-8-10 15 29 4-2-11c9.921 8.419 13.484 20.412 28 23v-1l-18-11c8.872-2.768 17.101-1.939 23 6h1l-3-13c4.396 4.382 6.311 10.485 11.039 14.815C603.197 671.78 617.232 664.736 629 654l-5 11c10.367-2.011 18.538-5.612 27-12l-7 14c14.035-4.68 27.974-13.25 38.996-23.089C688.134 639.324 693.634 629.13 700 627l1-5c-8.597 5.201-12.208 16.846-21 22.397-12.406 7.832-30.729-2.403-41-8.397l2 9c-18.839-8.812-28.075-18.164-37-37h-1l2 24c-10.511-7.184-16.499-16.903-20-29h-1l-2 29h-1l-12.6-36-6.4-26m-416 2l1 1-1-1z" class="C"/><path d="M1909 572l1 1-1-1z" class="B"/><path d="M147 573v6c-5.752.963-4.427 5.794 1 5 .186 5.676 3.328 8.284 6 2 3.932 1.503 6.978.038 4-4v-1l1-6-6 2-6-4z" class="F"/><path d="M150 573l1 1-1-1z" class="D"/><path d="M153 574l1 1-1-1z" class="C"/><path d="M80 575l1 1-1-1z" class="B"/><path d="M156 575l1 1-1-1m3 0l1 1-1-1m288 0l1 1-1-1z" class="D"/><path d="M89 576l1 1-1-1z" class="B"/><path d="M160 576v3h1l-1-3z" class="D"/><path d="M445 576l2 6-4 6 7-1c2.127 6.448 7.278.361 12 0l-5-11h-2l-2 4-8-4z" class="F"/><path d="M457 576l1 1-1-1z" class="D"/><path d="M1151 576c-12.42 26.55-14.6 54.682-4 82l-8 1-2-7h-1l5 8c-.01 6.335 5.36 15.118 11 18l-1 2c8.1 5.087 13.47 1.778 14-8l3 2 16-24-12 30 14.77-13.089L1196 654v7c5.45-4.096 4.83-15.707 6-22h1l1 9h1l-2-15h-1v3h-1l-8-21h-1l3 35c-14.2-4.827-17.25-25.007-19-38h-1c-3.21 10.75-2.91 19.133-11 28l-10.71-37-2.29-27z" class="C"/><path d="M451 577l1 1-1-1m7 0v3h1l-1-3z" class="D"/><path d="M462 577l1 1-1-1z" class="C"/><path d="M145.667 578.333l.666.334-.666-.334M453 578l1 1-1-1z" class="D"/><path d="M90.333 579.667l.333.666-.333-.666z" class="B"/><path d="M152 579l2 2-2-2z" class="E"/><path d="M336 579l1 1-1-1z" class="C"/><path d="M452 579l1 1-1-1z" class="D"/><path d="M334 580l1 1-1-1z" class="C"/><path d="M1150 580l1 1-1-1z" class="B"/><path d="M286 581l1 1-1-1z" class="C"/><path d="M335 581l1 1-1-1z" class="D"/><path d="M334 586c-7.037.064-13.29 5.662-3 6-3.044 7.751 2.27 7.315 8 5 3.37 6.667 8.014 3.397 5-3 11.195-.132 7.244-8.003-2-6-1.603-4.657-5.978-8.577-8-2z" class="F"/><path d="M440 581l1 1-1-1z" class="C"/><path d="M152 582l1 1-1-1z" class="E"/><path d="M339 582l1 1-1-1z" class="D"/><path d="M341 582l1 1-1-1z" class="C"/><path d="M452 582l-1 3 3 1 1-3-3-1z" class="E"/><path d="M459 582l1 1-1-1m-317 1l1 1-1-1m198 0l1 1-1-1m121 0l1 1-1-1m-314 1l1 1-1-1z" class="D"/><path d="M282 584l1 1-1-1m282 0l1 1-1-1z" class="B"/><path d="M341 585l1 1-1-1z" class="D"/><path d="M1150.33 585.667l.34.666-.34-.666z" class="B"/><path d="M143 586l1 1-1-1z" class="C"/><path d="M154 586l1 1-1-1m172 0l1 1-1-1z" class="D"/><path d="M624 586l1 1-1-1z" class="C"/><path d="M153.333 587.667l.334.666-.334-.666M156 587l1 1-1-1m2 0l1 1-1-1m166 0l1 1-1-1m19 0l1 1-1-1m5 0l1 1-1-1m-201 1l1 1-1-1m204 0l1 1-1-1z" class="D"/><path d="M504 588l1 1-1-1z" class="B"/><path d="M625 588l1 1-1-1m-479 1l1 1-1-1m8 0l1 1-1-1m4 0l1 1-1-1z" class="C"/><path d="M278 589l1 1-1-1z" class="B"/><path d="M323 589l1 1-1-1z" class="D"/><path d="M442 589l1 1-1-1z" class="C"/><path d="M455 589l1 1-1-1z" class="D"/><path d="M336 591v1l3-1-2 2v1l4-3h-5z" class="E"/><path d="M502 590l1 1-1-1z" class="B"/><path d="M626 590l-1 2 1-2z" class="D"/><path d="M625 594h-12l6 6c-7.398 4.823.122 8.548 6 5 2.563 9.767 8.28 9.421 7-1l8-1c-1.399-4.431-11.971-14.323-15-9z" class="F"/><path d="M153 591l1 1-1-1z" class="C"/><path d="M324 591l1 1-1-1z" class="D"/><path d="M475 591l1 1-1-1m-395 1l1 1-1-1z" class="B"/><path d="M352 592l1 1-1-1m263 0v1h4l-4-1z" class="D"/><path d="M1243 592l-23 54h-1l6-26h-1l-17 33-1-4h-1l3 6c-.65 14.167 17.22 11.104 27 13l-4-10 7 3 2-14 6-10h-1l-10 10c5.09-13.225 6.06-26.995 7.09-41 .33-4.55 2.47-9.639.91-14m-915 1l1 1-1-1z" class="C"/><path d="M330 593l1 1-1-1m21 0l1 1-1-1z" class="D"/><path d="M465 593l1 1-1-1z" class="C"/><path d="M474 593l1 1-1-1m30 0l1 1-1-1z" class="B"/><path d="M622 593l1 1-1-1z" class="D"/><path d="M82 594l1 1-1-1z" class="B"/><path d="M329 594l1 1-1-1m15 0l1 1-1-1z" class="D"/><path d="M500 594l-1 2 1-2z" class="B"/><path d="M631 594v3h1l-1-3z" class="D"/><path d="M711.667 596.333l.666.334-.666-.334M820 596c-7.239 12.525-21.009 25.573-35 30 1.586-2.927 2.736-4.704 0-7l-4 27 17-22 2 28h14l1-1-5-10 16 9-6-20h1l7 12 2-1c5.546 12.359 21.345 19.994 34 23v-1c-22.64-7.724-22.708-27.41-21-47h-1l-13 24-6-14-8 6 7-36h-2z" class="C"/><path d="M1896 596l1 1-1-1M88 597l1 1-1-1z" class="B"/><path d="M338 597l1 1-1-1m-9 1l1 1-1-1m6 0l1 1-1-1z" class="D"/><path d="M501 598l1 1-1-1z" class="B"/><path d="M616 598l1 1-1-1m21 0l1 1-1-1z" class="D"/><path d="M710 598v5c-5.488 1.522-8.58 5.788-1 7 1.163 5.577 4.669 6.48 7 1h6l-1-9-6 1-5-5z" class="F"/><path d="M333 599l1 1-1-1z" class="D"/><path d="M478 599l1 1-1-1z" class="C"/><path d="M492 633c-4.909-4.536-7.691-10.33-8-17h-2l-1 19-25-24 8 19c-15.361 4.87-25.773-3.53-38-12l5 19-23 5c2.013-4.458 4.66-8.322 2-13-5.148 8.698-10.761 15.076-19 21l12-29c-9.913 5.619-12.112 24.317-23 28-.92 8.447-9.469 8.408-16 9.439-4.354.687-9.639 3.769-14 2.948-10.616-2.001-19.609-8.89-31-9.387v1l17 15-12-6c1.522 10.724-15.07 24.618-24.982 16.127-3.487-2.987-3.007-9.008-3.018-13.127h-1c-1.859 7.546-5.524 32.1-15 14h-1c-5.975 14.54-14.679 10.979-26 4-1.441 6.064-3.284 11.276-10 8v3h-1l-4-7h-1l1 9c-18.979-1.51-33.115-15.557-44-30h-1l6 26c-14.018-5.876-25.703-23.531-32-37l-2 1-11-16-9-6c5.394 12.518 12.704 22.745 13 37-7.694-4.89-12.598-10.583-16-19h-1l1 12h-1c-8.287-17.726-24.188-25.441-20-48-8.183 5.816-5.599 24.389-4 33h-1c-2.468-7.122-7.474-20.008-14-24l6 18c-13.961-2.402-37.517-10.259-48.7-18.965C51.418 617.898 46.818 606.477 38 602l6 18-16-8 5 10c-6.86-2.322-26.845-5.403-31.972 1.653C-.987 626.426 0 631.771 0 635v27 106h1920v-68l-5.67-12-10-29-4.33-9c0 5.854 2.24 13.454.27 19-6.85 19.267-36.46 38.854-55.27 44v-1c4.28-2.842 7.06-9.056 8-14l-16 10-1-4h-1l-2 6-7 1 5-11c-3.66 2.315-6.01 5.905-10 7.956-20.24 10.4-23.18-9.734-28-24.956-4.21 5.292-3 12.589-3 19l-10-12c.1 7.725 1.88 13.472 6 20-15.59-1.359-27.08-11.113-35-24h-1l1 11c-8.38-.685-15.89-1.363-16-11l-6 8h-9l12-15-19 8 5-19c-7.34 2.159-13.48 7.213-17 14h-1c0-14.728 6-23.801 11-37-11.67 7.327-16.96 21.764-17 35l-9-15h-1v16c-11.66-1.298-16.65-15.26-25-22l8 18c-19 4.916-24.31-7.007-40-14l6 20-23 5c2.74-5.857 5.64-12.519 4-19h-1c-1.7 11.323-10.57 22.404-21 27v-1c7.19-4.15 12.37-21.102 13-29-7.91 4.913-17.8 22.572-22 31h-1l-4-20h-1l-8 19c-.7 6.884-8.55 10.24-15 10.681-10.31.705-22.93-8.8-34-9.681l14 13-8-3-1 1v10l-6-14c-7.53 4.074-1.1 19.813-10.02 20.713-6.95.702-9.93-10.2-12.65-14.999-8.82-15.609-23.72-34.399-25.33-52.714h-1c-6.1 14.189-6.05 29.98-8.21 45-1.29 8.998-3.6 17.821-3.79 27l-5-2-3 12h-1l-4-4-3 2 6-18-16 9v3l-3-1c-2.42 10.353-11.13 2.746-17 0l2-3c-7.61-2.321-14.08-8.479-17-16l-2 1-1-3 6 25c-7.6 1.199-18.78-11.035-8-14l2-5-14 4-20-28 2 1v-1l-11-6 6 20 4 12c-5.53-2.034-4.95-5.869-4-11l-5 6h-1l-7-14h-1l1 12h-1c-7.91-15.222-21.95-24.013-22-43h-1l-3 9 2 18h-1l-12-24h-1c-1.28 6.164 2.13 13.554 5 19-5.55-.955-10.71-3.425-16-5.308-14.66-5.217-39.32-10.228-44.26-27.692-2.39-8.438 1.26-21.963 1.26-31h-1c-.85 5.079-7.16 22.71-10 22l-2 14-7-3 4 10c-9.7-2.509-26.78 1.253-27-13l-5-16h-1l-6 22v-7l-9.86 12.911L1172 680c5.62-8.598 11.54-19.578 12-30-6.21 4.996-13.48 16.412-16 24l-3-2c-1.08 9.785-5.99 11.449-14 8l1-2c-4.95-3.821-10.53-11.589-11-18-4.93-4.301-6.56-11.774-8-18h-1l1 22-2-1v22l-1-5-8-8 4 16-26-8 15 14-10-3v9c-11.49-6.196-19.34-31.699-21-44h-1l-3 50h-1v-16l-3 3 1-9-8 14-3-2 2 2v1c-6.43 4.936-10.48 16.02-19 18.13-3.05.754-12.37-2.698-11-6.13v-1l-5-1v5h-1l-12-25c-8.74-2.594-15.87-20.637-17-29h-2l-3 57-24-22 4 17h-1l-19-43h-1l1 29-18-23 2 1v-1l-11-7 9 32c-7.307-3.645-12.311-9.291-15-17h-2l1 10-5-7c-13.681-3.921-18-24.878-18-37h-1v33h-1l-12-23h-1l5 15c-20.676-5.655-48.762-14.574-61-33l-2 1-7-12h-1l6 20-16-9 5 10-1 1h-14l-2-28-17 22 5-32h-1c-2.004 13.561-10.976 35.612-24.001 41.991-9.342 4.575-22.834 4.505-32.999 7.009l1-15-33 11 4-11-18 14 17-36h-1c-14.202 19.159-32.717 30.995-54 41l7-14-27 12 5-11c-4.15 2.508-6.539 6.869-11.001 9.164-10.881 5.598-22.941 1.47-30.825-7.179-3.369-3.696-5.052-9.264-9.174-11.985l7 21c-8.798-2.119-16.751-3.203-23.985-9.329-5.338-4.519-7.973-12.276-14.015-15.671l2 11-29-4 10-15-18 8c-1.328-8.054 2.552-12.234 6-19-8.508 1.18-14.467 6.798-20 13 2.464-13.224 5.669-23.104 12-35-11.261 5.252-21.493 21.28-18 34m59-34l1 1-1-1z" class="B"/><path d="M612 599l1 1-1-1z" class="C"/><path d="M618 599l1 1-1-1z" class="D"/><path d="M625 602h1l3-1-4 1z" class="E"/><path d="M639 599l1 1-1-1m70 0l1 1-1-1z" class="D"/><path d="M716 599l1 1-1-1z" class="C"/><path d="M1241 599l1 1-1-1z" class="B"/><path d="M340 600l1 1-1-1z" class="D"/><path d="M466.667 600.333l.666.334-.666-.334M494 600l1 1-1-1m6 0l1 1-1-1m66.333.667l.334.666-.334-.666z" class="B"/><path d="M617 600l1 1-1-1m97 0l1 1-1-1z" class="D"/><path d="M721 600l1 1-1-1z" class="C"/><path d="M819 600l-1 3 1-3z" class="B"/><path d="M345 601l1 1-1-1z" class="D"/><path d="M347 601l1 1-1-1m136 0l1 1-1-1m-137 1l1 1-1-1z" class="C"/><path d="M465 602l-1 2 1-2m3 0l-1 2 1-2m24.667.333l.666.334-.666-.334M549 602l1 1-1-1m2 0l1 1-1-1z" class="B"/><path d="M615 602l1 1-1-1m94 0l1 1-1-1z" class="D"/><path d="M722 602l1 1-1-1z" class="C"/><path d="M1867 602l-1 2h2l-1-2z" class="B"/><path d="M344 603l1 1-1-1z" class="C"/><path d="M498 603l1 1-1-1m2 0l1 1-1-1z" class="B"/><path d="M638 603l1 1-1-1m69 0l1 1-1-1m14.333.667l.334.666-.334-.666z" class="D"/><path d="M348 604l1 1-1-1z" class="C"/><path d="M491 604l1 1-1-1m59 0l-1 3 1-3z" class="B"/><path d="M632 604v1h4l-4-1z" class="D"/><path d="M816 604l1 1-1-1m-424 1l2 3-2-3m3.333.667l.334.666-.334-.666M461 605l2 2-2-2m4 0l1 1-1-1m42.333.667l.334.666-.334-.666z" class="B"/><path d="M624 605l1 1-1-1m79 0l1 1-1-1z" class="D"/><path d="M712 605l1 1-1-1z" class="E"/><path d="M722 605l1 1-1-1z" class="C"/><path d="M818.333 605.667l.334.666-.334-.666z" class="B"/><path d="M625.333 606.667l.334.666-.334-.666z" class="D"/><path d="M714 606l-3 1v1c2.143.265 3.419.384 3-2z" class="E"/><path d="M815 606l-1 2 1-2m-357 1l1 1-1-1m24 0l1 1-1-1m6 0l1 1-1-1z" class="B"/><path d="M617 607l1 1-1-1m3 0l1 1-1-1m12 0l1 1-1-1z" class="D"/><path d="M638 607l1 1-1-1z" class="C"/><path d="M720 607l1 1-1-1z" class="D"/><path d="M99 608l1 1-1-1m297 0l1 1-1-1m148 0l1 1-1-1m22.333.667l.334.666-.334-.666z" class="B"/><path d="M721 608l1 1-1-1z" class="D"/><path d="M767 608c-13.237 17.855-37.898 31.736-60 35l6-19h-1c-5.402 8.002-10.764 13.834-19 19l2-6h-1l-12 25c7.838-3.089 12.532-7.742 18-14l-4 11c12.33-.973 22.528-4.327 33-11l-1 15c10.294-1.939 24.644-2.396 33.996-7.009C773.361 650.385 780.594 632.682 783 621h-1c-6.52 7.587-19.138 9.854-28 14 4.961-5.513 15.709-19.171 13-27m20 0l-1 10h1v-10z" class="C"/><path d="M1240.33 608.667l.34.666-.34-.666M459 609l1 1-1-1m27.333.667l.334.666-.334-.666M817 609l1 1-1-1m325.33.667l.34.666-.34-.666m-663.663.666l.666.334-.666-.334m66.666.334l.334.666-.334-.666M387 611l-2 3 2-3m66 0l1 1-1-1m64 0l1 1-1-1z" class="B"/><path d="M716 611l1 1-1-1m5 0l1 1-1-1z" class="D"/><path d="M810 611l1 1-1-1m3.667.333l.666.334-.666-.334M1237 611l1 1-1-1m-750 1l1 1-1-1m54 0l1 1-1-1m28 0l1 1-1-1z" class="B"/><path d="M715 612l1 1-1-1z" class="D"/><path d="M1861 612l1 1-1-1m-1470 1l1 1-1-1m5 0l1 1-1-1m75 0l1 1-1-1m13 0v2h2l-2-2m22.333.667l.334.666-.334-.666M515 613l1 1-1-1m28 0l1 1-1-1m3 0l1 1-1-1m38.333.667l.334.666-.334-.666M604 613l1 1-1-1z" class="B"/><path d="M631 613l1 1-1-1m78 0l1 1-1-1z" class="D"/><path d="M811 613l-1 2 1-2m-361 1l1 1-1-1m90 0l-1 2 1-2z" class="B"/><path d="M626.667 614.333l.666.334-.666-.334M718 614l1 1-1-1m66 0v4h1l-1-4z" class="C"/><path d="M116 615l1 1-1-1m267 0l-1 2 1-2m3 0l1 1-1-1m9 0l1 1-1-1m52 0l1 1-1-1m19 0l1 1-1-1m3.667.333l.666.334-.666-.334M481 615l1 1-1-1m27.333.667l.334.666-.334-.666M517 615l1 1-1-1m70 0l1 1-1-1z" class="B"/><path d="M628 615l1 1-1-1z" class="C"/><path d="M710 615l1 1-1-1z" class="D"/><path d="M806 615l2 2-2-2m1057 0l1 1-1-1m-1277.667 1.667l.334.666-.334-.666M1154 616l1 1-1-1m81 0l1 1-1-1m3 0l1 1-1-1m-867 1l-1 3 1-3m167 0l-1 2 1-2m7.333.667l.334.666-.334-.666M216 618l1 1-1-1m142.333.667l.334.666-.334-.666M571 618l1 1-1-1m17 0l1 1-1-1m172.333.667l.334.666-.334-.666M762 618l1 1-1-1z" class="B"/><path d="M783 618v3h1l-1-3z" class="C"/><path d="M802 618l1 1-1-1m-420 1l1 1-1-1m153 0l-1 2 1-2m5 0l1 1-1-1m11 0l1 1-1-1m683 0l1 1-1-1z" class="B"/><path d="M1264 625c-15.73 6.657-19.61 28.644-8.32 41.13 10.29 11.373 39.17 21.352 54.32 22.87l-5-19h1c.55 8.039 7.6 17.352 12 24h1l-2-18 2-5h-1v4c-5.01-3.687-13.62-8.63-15.43-15-1.28-4.505 3.47-9.818 6.05-13 8.01-9.898 19.13-17.734 26.38-28-20.46 7.745-38.21 22.323-59 29.947-5.58 2.044-18.62 7.957-21.3-.966-2.15-7.121 6.64-16.816 9.3-22.981z" class="C"/><path d="M215 620l1 1-1-1m224 0l-1 2 1-2m8 0l1 1-1-1m58.333.667l.334.666-.334-.666M518 620l1 1-1-1m26 0l1 1-1-1m255 0l-1 2 1-2z" class="B"/><path d="M880 620l1 1-1-1z" class="C"/><path d="M508 621l1 1-1-1m40 2l3-2-3 2z" class="B"/><path d="M882 621l1 1-1-1z" class="C"/><path d="M884 621v6c-8.862.999-5.88 8.137 2 5 3.501 5.664 6.43.898 11-1l-4-5 1-3-10-2z" class="F"/><path d="M886 621l1 1-1-1z" class="D"/><path d="M146 622l1 1-1-1m233 0l1 1-1-1m3 0l1 1-1-1m54 0l1 1-1-1m4 0l1 1-1-1m92 0l1 1-1-1m74 0l1 1-1-1m153 0l1 1-1-1z" class="B"/><path d="M883 622v3h1l-1-3m10 0l1 1-1-1z" class="D"/><path d="M355 623l1 1-1-1m22 0l1 1-1-1m127 0l1 1-1-1m2 0l1 1-1-1m13 0l1 1-1-1m38 0l1 1-1-1m35 0l2 3-2-3z" class="B"/><path d="M764 623l1 1-1-1z" class="C"/><path d="M839 623l1 1-1-1z" class="B"/><path d="M1006 623l-25 65h-1l1-26-21 13 17 37h1l-4-17 24 22c4.84-17.349 3.72-39.106 3-57h2l2 10h1l2-47h-2m244 0l1 8h1l-2-8z" class="C"/><path d="M109 624l1 1-1-1z" class="B"/><path d="M348 624l1 1-1-1z" class="C"/><path d="M404 624l1 1-1-1m130 0l1 1-1-1m279 0l1 1-1-1z" class="B"/><path d="M1076 624c-6.84 21.026-9 40.981-9 63h-1l-2-5h-1l-4 21-11-12 4 20c-7.86-3.548-12.8-6.99-18-14h-1l1 9-14-23-4 3 4 3 12 25h1v-5l5 1v1l-2 1c15.36 11.712 22.02-1.468 32-13v-1l-2-2 3 2 8-14-1 9 3-3v16h1l2-41 1-14h-1v4h-1l-5-31z" class="C"/><path d="M530.333 625.667l.334.666-.334-.666M556 625v3h1l-1-3m3.333.667l.334.666-.334-.666M607 625l1 1-1-1z" class="B"/><path d="M746 625l1 1-1-1z" class="C"/><path d="M791 625l1 1-1-1m-386 1l3 3-3-3m206 0l1 1-1-1m141 0l1 1-1-1m254 0l1 1-1-1z" class="B"/><path d="M1249.33 626.667l.34.666-.34-.666z" class="C"/><path d="M1325 626l-1 2 1-2m536.33.667l.34.666-.34-.666M210 627l1 1-1-1m161 0l1 1-1-1m32.333.667l.334.666-.334-.666M521 627l1 1-1-1m6 0l1 1-1-1m65 0l1 1-1-1m3 0l1 1-1-1m182 0v3h1l-1-3m60 0l1 1-1-1z" class="B"/><path d="M879 627l1 1-1-1z" class="D"/><path d="M887 628v1h4l-4-1z" class="E"/><path d="M1598 627l1 1-1-1m-1457 1l1 1-1-1m270 0l1 1-1-1z" class="B"/><path d="M415 628l1 1-1-1z" class="C"/><path d="M558 628l1 1-1-1m49 0l1 1-1-1z" class="B"/><path d="M698.333 628.667l.334.666-.334-.666z" class="C"/><path d="M747 628l1 1-1-1m27 0l1 1-1-1m17 0l1 1-1-1m-390 1l1 1-1-1m354 0l1 1-1-1m16 0l1 1-1-1m15 0l1 1-1-1m50 0l2 3-2-3m385 0l1 1-1-1z" class="B"/><path d="M1248 629l1 1-1-1z" class="C"/><path d="M1319 629l1 1-1-1m3 0l-1 2 1-2m-917 1l1 1-1-1m150 0l1 1-1-1m56 0l1 1-1-1z" class="B"/><path d="M697 630v3h1l-1-3z" class="C"/><path d="M745 630l1 1-1-1m452 0l1 1-1-1m33 0l1 1-1-1m87 0l1 1-1-1m-1181 1l1 1-1-1m234.667.333l.666.334-.666-.334M374 631l1 1-1-1m29 0l1 1-1-1m118 0l1 1-1-1m37 0l1 1-1-1m42 0l1 1-1-1m13 0l1 1-1-1m96 0l1 1-1-1m45 0l-2 3 2-3m13 0l1 1-1-1m51 0l1 1-1-1z" class="B"/><path d="M895 631l1 1-1-1z" class="D"/><path d="M1006 631v3h1l-1-3m69 0l1 1-1-1m77 0l1 1-1-1m6 0l1 1-1-1m-873.667 1.667l.334.666-.334-.666m55 0l.334.666-.334-.666M353 632l1 1-1-1m3.333.667l.334.666-.334-.666M616 632l1 1-1-1z" class="B"/><path d="M877 632l1 1-1-1m8 0l1 1-1-1z" class="D"/><path d="M1234 632l1 1-1-1z" class="B"/><path d="M1247 632l1 1-1-1z" class="C"/><path d="M1313 632l1 1-1-1m-962 1l1 1-1-1m13.333.667l.334.666-.334-.666M428 633l1 1-1-1m155 0l1 1-1-1m20.333.667l.334.666-.334-.666z" class="B"/><path d="M696.333 633.667l.334.666-.334-.666z" class="C"/><path d="M708.333 633.667l.334.666-.334-.666M836 633l1 1-1-1z" class="B"/><path d="M873 633l1 1-1-1z" class="C"/><path d="M879 633l1 1-1-1m3 0l1 1-1-1m4 0l1 1-1-1z" class="D"/><path d="M1257 633l1 1-1-1m-968 1l1 1-1-1m328 0l1 1-1-1m216.333.667l.334.666-.334-.666M1171 634l-1 2 1-2z" class="B"/><path d="M1246.33 634.667l.34.666-.34-.666z" class="C"/><path d="M1253 634l-1 3h1 1l-1-3m-837 1l1 1-1-1m185.333.667l.334.666-.334-.666M606 635l1 1-1-1z" class="B"/><path d="M695.333 635.667l.334.666-.334-.666z" class="C"/><path d="M758 635l-1 2v1c2.158-.978 2.501-1.188 1-3z" class="B"/><path d="M879 635l1 1-1-1z" class="C"/><path d="M887 635l1 1-1-1m4 0l1 1-1-1z" class="D"/><path d="M1130 635l1 11h1c.51-4.118 1.66-8.213-2-11z" class="C"/><path d="M1174 635l1 1-1-1m139 0l1 1-1-1m-1182 1l1 1-1-1m219 0l1 1-1-1m405 0l1 1-1-1z" class="B"/><path d="M888 636v1h3l-3-1z" class="D"/><path d="M1306 636l1 1-1-1m-1060 1l1 1-1-1m43 0l1 1-1-1m332 0l1 1-1-1z" class="B"/><path d="M886 637l1 1-1-1z" class="C"/><path d="M1172 637l1 1-1-1m132 0l1 1-1-1m5 0l1 1-1-1m5 0l1 1-1-1m-957.667 1.667l.334.666-.334-.666M703 638l-1 2 1-2m27 0l1 1-1-1m24 0l1 1-1-1m320.33.667l.34.666-.34-.666M1226 638l1 1-1-1m-979 1l1 1-1-1m43 0l1 1-1-1m58 0l1 1-1-1m14 0l1 1-1-1m243.667.333l.666.334-.666-.334M1001 639l1 1-1-1m252 0l1 1-1-1m-960 1l1 1-1-1m60 0l1 1-1-1m15 0l1 1-1-1m3 0l1 1-1-1m29 0l1 1-1-1m151 0l1 1-1-1m74 0v1l3 1-3-2m194.333.667l.334.666-.334-.666z" class="B"/><path d="M822 640l3 8-3-8z" class="E"/><path d="M840 640l1 1-1-1m355.33.667l.34.666-.34-.666M1311 640l-1 2 1-2m290 0l1 1-1-1m-1227 1l1 1-1-1m331 0l1 1-1-1m513 0l1 1-1-1m17 0l1 1-1-1m63 0l1 1-1-1m9 0l1 1-1-1m-1012 1l1 1-1-1m75.667.333l.666.334-.666-.334M624 642l1 1-1-1m20 0l2 5h1l2-2v-1l-5-2m54 0l1 1-1-1m4 0l1 1-1-1z" class="B"/><path d="M1107 642l2 35-13-3 1 6-7-5c2.48 7.718 6.59 22.271 15 25v-9l10 3-15-14 26 8-4-16 8 8 1 5v-22l2 1v-1-15h-1v11l-17-10v8h-1l-5-15h-2m26 0v3h1l-1-3z" class="C"/><path d="M1233 642l1 1-1-1m63 0l1 1-1-1m-943 1l1 1-1-1z" class="B"/><path d="M347 660c4.891 2.102 8.131.06 13-1.243 4.797-1.284 12.961-.385 16.547-4.191 4.928-5.229-4.206-10.248-8.547-11.069-10.931-2.067-18.653 6.734-21 16.503z" class="E"/><path d="M631.667 643.333l.666.334-.666-.334M642 643l2 2-2-2m54 0l1 1-1-1m527 0l1 1-1-1m-973 1l1 1-1-1m384 0l1 1-1-1m76 0l-1 3 1-3m9 0l1 1-1-1z" class="B"/><path d="M901 644l1 20h1v-20h-2z" class="C"/><path d="M1177 644l1 1-1-1m57 0l1 1-1-1m7 0l1 1-1-1m50 0l1 1-1-1m420 0l1 1-1-1m-1509 1v3h1l-1-3m422 0l1 1-1-1m80 0l1 1-1-1m480 0l1 1-1-1m55 0l1 1-1-1m50 0l1 1-1-1m18 0l1 1-1-1m-675 1l1 1-1-1m16 0l1 1-1-1m8 0l1 1-1-1m38 2l3-1-3 1z" class="B"/><path d="M1134.33 646.667l.34.666-.34-.666z" class="C"/><path d="M1293 646l1 1-1-1z" class="B"/><path d="M1443 646c3.25 24.161-1.58 43.552-7 67h-1l-1-11-8 11h-1l-8-39h-1l-10 45h-1c-4.88-9.552-2.69-15.033-1-25l-10 13c-3.67-9.135 2.18-15.684 7-23l-16 9 21-26-42 26v-1l10-9c-8.34 2.379-13.37 4.694-22 2l10 6v1l-2-1v1l20 27 14-4-2 5c-11.14 1.676-1 17.136 8 14l-6-25 1 3 2-1c1.88 7.877 9.17 14.536 17 16l-2 3c4.7 3.112 17.18 11.546 17 0l3 1v-3l16-9-6 18 3-2 4 4h1c2.92-3.949 3.94-7.138 3-12l5 2c.31-7.322 3.42-15.746 2.2-23-1.65-9.853-7.22-19.609-8.95-30-1.61-9.623-1.91-22.14-8.25-30z" class="C"/><path d="M207 647l1 1-1-1m71 0l1 1-1-1m356 0l1 1-1-1m58 0l1 1-1-1m14 0l1 1-1-1m103 0l1 1-1-1m262 0l1 1-1-1m115 0l1 1-1-1m28 0l1 1-1-1m390 0l1 1-1-1m-1253 1l1 1-1-1m27 0l1 1-1-1m695 0l1 1-1-1m111 0l2 3-2-3m12 0l1 1-1-1m15 0l1 1-1-1m385 0l1 1-1-1z" class="B"/><path d="M557 651c5.713 7.739 15.668 11.742 25 13-.679-13.053-14.022-17.652-25-13z" class="E"/><path d="M592 649l1 1-1-1z" class="B"/><path d="M899 649v3h1l-1-3m236.33.667l.34.666-.34-.666z" class="C"/><path d="M1150.33 649.667l.34.666-.34-.666M1279 649l1 1-1-1m-702 1l1 1-1-1m12 0l1 1-1-1m255 0l2 3-2-3m264 0l1 1-1-1m81 0l1 1-1-1m9 0l1 1-1-1m18 0l1 1-1-1m87 0l1 1-1-1m-112 1l1 1-1-1m5.33.667l.34.666-.34-.666M1209 651l1 1-1-1m3 0l1 1-1-1m22 0l1 1-1-1m372 0l1 1-1-1m-1378 1l1 1-1-1m30 0l-2 3 2-3m443 0l1 1-1-1z" class="B"/><path d="M898 652l-1 17h1v-17z" class="C"/><path d="M1146 652l1 1-1-1m107 0v2h2l-2-2m23.67.333l.66.334-.66-.334M1302 652l1 1-1-1z" class="B"/><path d="M883 653l2 8h1l1-2 2 5h1l-7-11z" class="C"/><path d="M1110 653l1 1-1-1m98.33.667l.34.666-.34-.666m28 0l.34.666-.34-.666M1251 653l1 1-1-1m354.33.667l.34.666-.34-.666M263 654l1 1-1-1m923 0l1 1-1-1m11 0l1 1-1-1m62.67.333l.66.334-.66-.334m7 0l.66.334-.66-.334M1863 654l1 1-1-1m-1633 1l1 1-1-1m28 0l1 1-1-1m441 0l1 1-1-1m149 0l1 1-1-1m263 0l1 1-1-1m9 0l1 1-1-1m57 0l1 1-1-1m35 0l1 1-1-1m39 0l1 1-1-1m47 0l2 2-2-2m305 0l1 1-1-1m188 0l-1 2 1-2m27 0l1 1-1-1m43 0l1 1-1-1m37 0l1 1-1-1m-1727 1v3h1l-1-3m106 0l1 1-1-1z" class="B"/><path d="M1084 656l1 8h1l-2-8z" class="C"/><path d="M1148 656l1 1-1-1z" class="B"/><path d="M1470 656l1 1-1-1z" class="C"/><path d="M1595 656l1 1-1-1m3 0l1 1-1-1m11 0l1 1-1-1m-1380 1l1 1-1-1m56 0l1 1-1-1m837 0l1 1-1-1m28 0v3h1l-1-3z" class="B"/><path d="M1469 657l1 1-1-1z" class="C"/><path d="M238 658l1 1-1-1m33 0v1h3l-3-1z" class="B"/><path d="M360 658v1h4l-4-1m221 0l1 1-1-1m280 0l1 1-1-1m94 0c.097 11.73 3.956 20.181-10 24v1l13 15c1.098-10.038 2.214-31.463-3-40z" class="C"/><path d="M1446.33 658.667l.34.666-.34-.666m76 0l.34.666-.34-.666M234 659l1 1-1-1m2 0l1 1-1-1z" class="B"/><path d="M357.667 659.333l.666.334-.666-.334z" class="C"/><path d="M1143 659l1 1-1-1m2 0v1h3l-3-1m464 0l-1 2 1-2m2 0l1 1-1-1m177 0l1 1-1-1m-1549 1l1 1-1-1z" class="B"/><path d="M354.667 660.333l.666.334-.666-.334M582 660l3 5-3-5z" class="C"/><path d="M1298 660l1 1-1-1z" class="B"/><path d="M1468 660l1 1-1-1m3.33.667l.34.666-.34-.666z" class="C"/><path d="M1595.33 660.667l.34.666-.34-.666M1635 661v1l3 1 1-2h-4z" class="B"/><path d="M352.667 661.333l.666.334-.666-.334M886 661v3h1l-1-3z" class="C"/><path d="M1069 661v3h1l-1-3m46.33.667l.34.666-.34-.666M1142 661l1 1-1-1z" class="B"/><path d="M1193 661l-3 9 1 1c3.89-2.528 4.86-6.208 2-10z" class="C"/><path d="M1523 661l1 1-1-1m14 0l1 1-1-1m-1300 1l1 1-1-1z" class="B"/><path d="M927 662l-1 2h2l-1-2z" class="C"/><path d="M1151 662l1 1-1-1z" class="B"/><path d="M1321 662v14h1l1-14h-2z" class="C"/><path d="M1911 662l-1 3 1-3m-1633 1l1 1-1-1z" class="B"/><path d="M576 663v1h3l-3-1m151 0l1 1-1-1z" class="C"/><path d="M1117 663l1 1-1-1m26 0l1 1-1-1m154 0l1 1-1-1z" class="B"/><path d="M1467.33 663.667l.34.666-.34-.666m5 0l.34.666-.34-.666z" class="C"/><path d="M1593 663l1 1-1-1m46.33.667l.34.666-.34-.666M1848 663l1 1-1-1m51 0l1 1-1-1z" class="B"/><path d="M865.667 664.333l.666.334-.666-.334m21.666.334l.334.666-.334-.666m3 0l.334.666-.334-.666M928 664l4 7-1-3 2 1v-1l-5-4z" class="C"/><path d="M994 664l1 1-1-1z" class="B"/><path d="M1086 664v3h1l-1-3z" class="C"/><path d="M1168 664l1 1-1-1z" class="B"/><path d="M1322 676c3.27 14.132 12.49 22.923 21 34h1l-1-12h1l7 14h1l5-6c-1.2 5.043-1.95 9.701 4 11l-4-12c.98-6.61-3.81-18.112-7-24 8.74-2.571 18.5-9.811 24-17-18.11 5.732-31.86 17.661-52 12z" class="C"/><path d="M1539 664l1 1-1-1m369 0l1 1-1-1z" class="B"/><path d="M867 665v1h3l-3-1m36.333.667l.334.666-.334-.666m-32.666.666l.666.334-.666-.334m20.666.334l.334.666-.334-.666M937 673v1l5 1v1l-2-1v1l2 4h1l9-14-15 7z" class="C"/><path d="M977 666l1 1-1-1z" class="B"/><path d="M1473 666l1 1-1-1z" class="C"/><path d="M1578 666l1 1-1-1m331.33.667l.34.666-.34-.666z" class="B"/><path d="M873.667 667.333l.666.334-.666-.334M888 667l1 5h1l-2-5m16 0v3h1l-1-3m183 0v3h1l-1-3m232 0v4h1l-1-4m147.33.667l.34.666-.34-.666z" class="C"/><path d="M1591 667l1 1-1-1m26 0l1 1-1-1m3 0l1 1-1-1z" class="B"/><path d="M875 668v1h3l-3-1m17.333.667l.334.666-.334-.666z" class="C"/><path d="M1151 668l1 1-1-1m216 0l1 1-1-1z" class="B"/><path d="M1474.33 668.667l.34.666-.34-.666z" class="C"/><path d="M1542 668l1 1-1-1z" class="B"/><path d="M878 669v1h3l-3-1m20 0v8h1l-1-8m35 0l3 3-3-3m25 0v3h1l-1-3z" class="C"/><path d="M972 669l2 2v-2h-2m393 0l-1 2 1-2m211 0l1 1-1-1m3.33.667l.34.666-.34-.666z" class="B"/><path d="M881.667 670.333l.666.334-.666-.334M893 670l1 1-1-1m12.333.667l.334.666-.334-.666m100.997 0l.34.666-.34-.666M1088 670l1 5h1l-2-5z" class="C"/><path d="M1308 670l1 1-1-1m233 0l1 1-1-1m49 0l1 1-1-1m26 0l2 2-2-2z" class="B"/><path d="M883 671v1h3l-3-1m49.333.667l.334.666-.334-.666M1189 671l1 1-1-1m276.33.667l.34.666-.34-.666M1475 671l1 1-1-1z" class="C"/><path d="M1543 671l1 1-1-1m2 0l1 1-1-1m29.33.667l.34.666-.34-.666M1588 671l1 1-1-1z" class="B"/><path d="M886 672v1l5-1h-5m8 0l1 1-1-1m12 0l2 3-2-3m30 0l1 1-1-1z" class="C"/><path d="M942 672v1h3v-1h-3z" class="B"/><path d="M959 672v3h1l-1-3m48.33.667l.34.666-.34-.666M1011 672l1 1-1-1z" class="C"/><path d="M1125 672l1 1-1-1m37 0l1 1-1-1m199 0l-1 2 1-2m178 0l1 1-1-1m71 0l1 1-1-1m-1372 1l1 1-1-1m13 0l1 1-1-1m7 0v1h3l-3-1m9.667.333l.666.334-.666-.334z" class="B"/><path d="M895.333 673.667l.334.666-.334-.666m38 0l.334.666-.334-.666M1476 673l1 1-1-1z" class="C"/><path d="M1547 673l2 2-2-2m40 0l-1 2 1-2z" class="B"/><path d="M1901 673c-2.8 10.236-9.81 18.252-7 29l8-6-3 9h6c2.28-7.921-.43-24.573-4-32z" class="C"/><path d="M234.667 674.333l.666.334-.666-.334M238 675v1l4-1h-4m25-1l1 1-1-1m703 0l1 1-1-1z" class="B"/><path d="M1008 674l2 3-2-3m97 0l1 1-1-1z" class="C"/><path d="M1313 674l1 1-1-1m40 2l3-1-3 1m44-2l1 1-1-1m129 0l1 1-1-1m46 0l1 1-1-1z" class="B"/><path d="M228 694l9 1-1-11h1l4 8h1v-3c7.237 5.558 9.835-.983 10-8 5.542 5.055 10.684 7.576 18 9 5.285-10.998-4.936-13.419-14-14.7-13.244-1.871-27.653 3.931-28 18.7z" class="E"/><path d="M266.667 675.333l.666.334-.666-.334z" class="B"/><path d="M896.333 675.667l.334.666-.334-.666m12 0l.334.666-.334-.666M934 675l1 1-1-1z" class="C"/><path d="M1315 675l1 1-1-1m42 0l-1 2 1-2m38 0l2 2-2-2m51 0l1 1-1-1z" class="B"/><path d="M1477 675l1 1-1-1z" class="C"/><path d="M235 676l1 1-1-1m35 0l1 1-1-1z" class="B"/><path d="M913 682l6 4 5 7-1-10h2c1.886 7.85 7.232 14.417 15 17l-6-24c-7.12 2.341-13.288 9.234-21 6z" class="C"/><path d="M1111 676l1 1-1-1m282 0l1 1-1-1z" class="B"/><path d="M1464 676l-1 10h1v-10z" class="C"/><path d="M1523 676l1 1-1-1m23 0l1 1-1-1m4 0l1 1-1-1z" class="B"/><path d="M897 677l2 5h1l-3-5m12 0l1 1-1-1z" class="C"/><path d="M966 677l1 1-1-1z" class="B"/><path d="M1010 677l2 3-2-3z" class="C"/><path d="M1098 677l1 1-1-1m62.33.667l.34.666-.34-.666m193.34-.334l.66.334-.66-.334z" class="B"/><path d="M1478 677l1 1-1-1z" class="C"/><path d="M1552 677l1 1-1-1m29.67.333l.66.334-.66-.334M271 678l1 1-1-1z" class="B"/><path d="M910 678l2 3-2-3z" class="C"/><path d="M1110.67 678.333l.66.334-.66-.334M1315 678l1 1-1-1m75 0l1 1-1-1m511.33.667l.34.666-.34-.666M931 679l1 1-1-1m58 0l1 1-1-1m131 0l1 1-1-1m2 0l1 1-1-1m271 0l-2 2v1l2-3m52 0l1 1-1-1z" class="B"/><path d="M1479 679l1 1-1-1z" class="C"/><path d="M1517 679l1 1-1-1m86 0l1 1-1-1m141 0l2 2-2-2z" class="B"/><path d="M943 680l1 1-1-1z" class="C"/><path d="M955 680l1 1-1-1m11 0l1 1-1-1m21 0l1 1-1-1z" class="B"/><path d="M1012 680l2 3-2-3z" class="C"/><path d="M1344 680l1 1-1-1m2 0l1 1-1-1m2 0l1 1-1-1m68 0l1 1-1-1m154.33.667l.34.666-.34-.666M1573 680l1 1-1-1m209 0l1 1-1-1m2 0l1 1-1-1z" class="B"/><path d="M252 681v5h1l-1-5m660 0l1 1-1-1m32 0l1 1-1-1z" class="C"/><path d="M979.333 681.667l.334.666-.334-.666M1068 681l2 3-2-3z" class="B"/><path d="M1480 681l1 1-1-1m-106 1l1 1-1-1z" class="C"/><path d="M1384 682l1 1-1-1m196 0l1 1-1-1z" class="B"/><path d="M254 683l1 1-1-1z" class="C"/><path d="M949.667 683.333l.666.334-.666-.334z" class="B"/><path d="M1014 683l2 3-2-3z" class="C"/><path d="M1097 683l1 1-1-1z" class="B"/><path d="M1343 686l8 1c-2.17-3.503-5.26-4.582-8-1z" class="E"/><path d="M1389 683l1 1-1-1z" class="B"/><path d="M1481 683l1 1-1-1m-1245 1v5h1l-1-5m19 0l1 1-1-1z" class="C"/><path d="M977 684l1 1-1-1z" class="B"/><path d="M256.667 685.333l.666.334-.666-.334z" class="C"/><path d="M984.333 685.667l.334.666-.334-.666M990 685l1 1-1-1m73 0l1 1-1-1m7 0l1 1-1-1m33 0l1 1-1-1m280 0l1 1-1-1z" class="B"/><path d="M1482 685l1 1-1-1z" class="C"/><path d="M1782.33 685.667l.34.666-.34-.666M1788 685l1 1-1-1z" class="B"/><path d="M258 686l1 1-1-1z" class="C"/><path d="M1096 686l1 1-1-1m282 0l1 1-1-1m9 0l1 1-1-1m532.33.667l.34.666-.34-.666z" class="B"/><path d="M238.333 687.667l.334.666-.334-.666m13 0l.334.666-.334-.666m8.334-.334l.666.334-.666-.334z" class="C"/><path d="M955 687l1 1-1-1m31 0l1 1-1-1m76 0l1 1-1-1m322 0l1 1-1-1m12 0l-2 3 2-3m18 0l1 1-1-1m37 0l1 1-1-1z" class="B"/><path d="M1483 687l1 1-1-1z" class="C"/><path d="M1529 687l1 1-1-1m256 0l1 1-1-1z" class="B"/><path d="M261.667 688.333l.666.334-.666-.334z" class="C"/><path d="M977 688l1 1-1-1m124 0l1 1-1-1m259 0l1 1-1-1m4 0l2 2-2-2m125 0l1 1-1-1m29.33.667l.34.666-.34-.666M1540 688l1 1-1-1m258 0l1 1-1-1m118 0l1 1-1-1m2 0l1 1-1-1z" class="B"/><path d="M239 689l1 1-1-1m3 0v5-5m8.333.667l.334.666-.334-.666M264 689v1h4l-4-1z" class="C"/><path d="M1362 689l2 2-2-2m20 0l-1 2 1-2m3 0l1 1-1-1z" class="B"/><path d="M1484 689l1 1-1-1z" class="C"/><path d="M1726 689l1 1-1-1z" class="B"/><path d="M237 690v5h-4v1h5l-1-6m3.333.667l.334.666-.334-.666z" class="C"/><path d="M1070 690l1 1-1-1m302 0l1 1-1-1z" class="B"/><path d="M1462 690v5h1l-1-5z" class="C"/><path d="M1528 690l1 1-1-1m13 0l1 1-1-1m27 0l1 1-1-1m188 0l1 1-1-1m41.33.667l.34.666-.34-.666m120 0l.34.666-.34-.666z" class="B"/><path d="M244 691l1 1-1-1m5 0l-1 2h2l-1-2z" class="C"/><path d="M1370 691l1 1-1-1z" class="B"/><path d="M1485 691l1 1-1-1z" class="C"/><path d="M1488.33 691.667l.34.666-.34-.666z" class="B"/><path d="M245.667 692.333l.666.334-.666-.334M1074 692l-9 22c10.07 2.286 13.5-15.124 9-22z" class="C"/><path d="M1383 692l1 1-1-1m131 0l1 1-1-1m55 0v3h1l-1-3z" class="B"/><path d="M247 693l1 1-1-1z" class="C"/><path d="M978 693l1 1-1-1m87 0l1 1-1-1m316 0l-1 2h2l-1-2m110 0l1 1-1-1m-105 1l1 1-1-1m3 0l1 1-1-1m148 0l1 1-1-1m-84 1l1 1-1-1m40.33.667l.34.666-.34-.666M1530 695l1 1-1-1m5 0l1 1-1-1m4 0l1 1-1-1m238 0l1 1-1-1m-727 1l1 1-1-1m14 0l1 1-1-1m353 0l1 1-1-1m29 0l1 1-1-1m5 0l1 1-1-1m336 0l1 1-1-1m108 0l1 1-1-1m-843 2l1 1-1-1m10.33.667l.34.666-.34-.666M1454 698l1 1-1-1m40.33.667l.34.666-.34-.666m409 0l.34.666-.34-.666M1050 699l1 1-1-1z" class="B"/><path d="M1461 699v6h1l-1-6z" class="C"/><path d="M1053 700l1 1-1-1m746 0l1 1-1-1m-302 1l4 4-4-4z" class="B"/><path d="M1888 701l-3 6c3.11-.663 4.17-3.148 3-6z" class="C"/><path d="M1051.33 702.667l.34.666-.34-.666M1055 702l1 1-1-1m343 0l1 1-1-1m59 1l-1 2 1-2m-421 1l1 1-1-1m18 0l1 1-1-1m3 0l1 1-1-1m13 0l1 1-1-1m284 0l1 1-1-1m59 0l1 1-1-1m101 0l1 1-1-1m293 0l1 1-1-1m17 0l1 1-1-1m-785.67 2.667l.34.666-.34-.666M1052 706l1 1-1-1m7 0l1 1-1-1m399 0l1 1-1-1m-403 1l1 1-1-1m14 0l1 1-1-1m327 0l1 1-1-1m116 0l1 1-1-1m-455 1l1 1-1-1m373 0l1 1-1-1m66 0l4 3-4-3m5 0l1 1-1-1m3 0l1 1-1-1m-107 1l1 1-1-1m116 0l1 1-1-1m-84 1v4h1l-1-4m75 0l1 1-1-1m-106 1l1 1-1-1m40 0l1 1-1-1m18 0l1 1-1-1z" class="B"/><path d="M1535 711l1 1-1-1m-557 1l1 1-1-1z" class="C"/><path d="M1357 712l1 1-1-1m28 0l-1 2 1-2m3 0l1 1-1-1m11 1l1 1-1-1z" class="B"/><path d="M978 714l2 3v-3h-2z" class="C"/><path d="M1387 714l1 1-1-1m39 0l1 1-1-1m5 0l-1 4h1v-4m-47 1l1 1-1-1m51 0v3h1l-1-3m66.33.667l.34.666-.34-.666M1524 715l1 1-1-1m-112.67 1.667l.34.666-.34-.666m3 1l.34.666-.34-.666M1427 717l1 1-1-1m10 0l1 1-1-1m-31 2l1 1-1-1m4 0l1 1-1-1m2 0l1 1-1-1m20 0l1 1-1-1m80 1l1 1-1-1m-125 5l1 1-1-1m3.33.667l.34.666-.34-.666M1415 727l1 1-1-1m31 0l-1 2 1-2z" class="B"/><path d="M1432 729l1 1-1-1z" class="C"/><path d="M1427 732l1 1-1-1z" class="B"/></svg>